<svg width="1584" height="269" viewBox="0 0 1584 269" fill="none" xmlns="http://www.w3.org/2000/svg">
<g clip-path="url(#clip0_548:2)">
<path d="M1584 0H0V269H1584V0Z" fill="#121214"/>
<ellipse cx="1582.5" cy="134.16" rx="709.5" ry="481.958" fill="#18181B"/>
<ellipse cx="1582.5" cy="134.16" rx="509.072" ry="345.809" fill="#1D1D25"/>
<ellipse cx="1525" cy="133.949" rx="140" ry="149.383" fill="#24242E"/>
<g opacity="0.5">
<path d="M1158.72 300.379C1159.29 302.109 1159.38 304.317 1159.18 306.621C1158.69 309.019 1157.91 311.513 1156.18 314.003C1154.44 316.493 1152.32 318.789 1149.53 320.988C1146.74 323.186 1143.18 324.998 1138.85 326.423C1130.2 329.273 1122.43 328.958 1115.82 325.382C1109.2 321.807 1104.42 316.03 1101.57 307.38C1099.67 301.613 1099.12 296.043 1099.9 290.669C1100.79 285.584 1102.82 281.079 1106.29 277.059C1109.85 273.327 1114.28 270.271 1120.33 268.276C1124.08 267.041 1127.45 266.573 1131 266.681C1134.55 266.789 1137.62 267.376 1140.11 268.153C1142.61 268.929 1145 270.378 1146.82 272.016C1148.64 273.655 1149.78 275.195 1150.35 276.925C1150.92 278.655 1150.82 280.287 1149.76 281.915C1148.99 283.448 1147.45 284.595 1145.72 285.165C1144.56 285.545 1143.6 285.542 1142.55 285.25C1141.49 284.958 1140.34 284.378 1139 283.222C1136.42 281.196 1134.02 279.748 1131.53 278.971C1129.04 278.195 1126.54 278.378 1123.66 279.328C1119.33 280.753 1116.73 283.528 1115.18 287.555C1113.63 291.581 1114 296.575 1115.9 302.342C1116.75 304.937 1117.89 307.437 1119.14 309.265C1120.38 311.094 1122.2 312.732 1123.92 314.082C1125.55 315.144 1127.75 316.016 1129.67 316.022C1131.69 316.317 1133.8 315.941 1135.82 315.276C1138.7 314.326 1140.82 312.989 1142.36 310.882C1143.91 308.776 1144.97 306.187 1145.85 303.022C1146.14 301.007 1146.63 299.569 1147.5 298.324C1148.08 297.174 1149.33 296.122 1150.77 295.647C1152.5 295.077 1154.13 295.179 1155.76 296.24C1157.39 297.302 1158.25 298.937 1158.72 300.379Z" fill="#24242E"/>
<path d="M1158.72 300.379C1159.29 302.109 1159.38 304.317 1159.18 306.621C1158.69 309.019 1157.91 311.513 1156.18 314.003C1154.44 316.493 1152.32 318.789 1149.53 320.988C1146.74 323.186 1143.18 324.998 1138.85 326.423C1130.2 329.273 1122.43 328.958 1115.82 325.382C1109.2 321.807 1104.42 316.03 1101.57 307.38C1099.67 301.613 1099.12 296.043 1099.9 290.669C1100.79 285.584 1102.82 281.079 1106.29 277.059C1109.85 273.327 1114.28 270.271 1120.33 268.276C1124.08 267.041 1127.45 266.573 1131 266.681C1134.55 266.789 1137.62 267.376 1140.11 268.153C1142.61 268.929 1145 270.378 1146.82 272.016C1148.64 273.655 1149.78 275.195 1150.35 276.925C1150.92 278.655 1150.82 280.287 1149.76 281.915C1148.99 283.448 1147.45 284.595 1145.72 285.165C1144.56 285.545 1143.6 285.542 1142.55 285.25C1141.49 284.958 1140.34 284.378 1139 283.222C1136.42 281.196 1134.02 279.748 1131.53 278.971C1129.04 278.195 1126.54 278.378 1123.66 279.328C1119.33 280.753 1116.73 283.528 1115.18 287.555C1113.63 291.581 1114 296.575 1115.9 302.342C1116.75 304.937 1117.89 307.437 1119.14 309.265C1120.38 311.094 1122.2 312.732 1123.92 314.082C1125.55 315.144 1127.75 316.016 1129.67 316.022C1131.69 316.317 1133.8 315.941 1135.82 315.276C1138.7 314.326 1140.82 312.989 1142.36 310.882C1143.91 308.776 1144.97 306.187 1145.85 303.022C1146.14 301.007 1146.63 299.569 1147.5 298.324C1148.08 297.174 1149.33 296.122 1150.77 295.647C1152.5 295.077 1154.13 295.179 1155.76 296.24C1157.39 297.302 1158.25 298.937 1158.72 300.379Z" stroke="#24242E" stroke-width="3.03589" stroke-linejoin="round"/>
</g>
<g clip-path="url(#clip1_548:2)">
<path d="M189.145 57.0437C149.737 57.0437 152.198 74.1332 152.198 74.1332L152.242 91.8385H189.848V97.1541H137.305C137.305 97.1541 112.088 94.2942 112.088 134.056C112.088 173.819 134.098 172.409 134.098 172.409H147.234V153.958C147.234 153.958 146.525 131.948 168.892 131.948H206.191C206.191 131.948 227.146 132.286 227.146 111.695V77.6484C227.146 77.6484 230.329 57.0437 189.145 57.0437ZM168.409 68.9501C169.298 68.9493 170.178 69.1238 170.999 69.4635C171.82 69.8032 172.566 70.3015 173.195 70.9299C173.823 71.5582 174.321 72.3044 174.661 73.1255C175.001 73.9467 175.175 74.8268 175.174 75.7154C175.175 76.6041 175.001 77.4842 174.661 78.3053C174.321 79.1265 173.823 79.8726 173.195 80.501C172.566 81.1294 171.82 81.6277 170.999 81.9674C170.178 82.3071 169.298 82.4815 168.409 82.4807C167.52 82.4815 166.64 82.3071 165.819 81.9674C164.998 81.6277 164.252 81.1294 163.623 80.501C162.995 79.8726 162.497 79.1265 162.157 78.3053C161.817 77.4842 161.643 76.6041 161.644 75.7154C161.643 74.8268 161.817 73.9467 162.157 73.1255C162.497 72.3044 162.995 71.5582 163.623 70.9299C164.252 70.3015 164.998 69.8032 165.819 69.4635C166.64 69.1238 167.52 68.9493 168.409 68.9501V68.9501Z" fill="url(#paint0_linear_548:2)"/>
<path d="M190.264 211.469C229.672 211.469 227.211 194.379 227.211 194.379L227.167 176.675H189.561V171.359H242.103C242.103 171.359 267.32 174.219 267.32 134.456C267.32 94.6929 245.31 96.1031 245.31 96.1031H232.175V114.554C232.175 114.554 232.883 136.564 210.516 136.564H173.218C173.218 136.564 152.262 136.226 152.262 156.818V190.865C152.262 190.865 149.08 211.469 190.263 211.469H190.264ZM211 199.563C210.111 199.564 209.231 199.39 208.41 199.05C207.589 198.71 206.843 198.212 206.214 197.584C205.586 196.955 205.088 196.209 204.748 195.388C204.408 194.567 204.234 193.687 204.235 192.798C204.234 191.909 204.408 191.029 204.748 190.208C205.088 189.387 205.586 188.641 206.214 188.012C206.843 187.384 207.589 186.885 208.41 186.546C209.231 186.206 210.111 186.031 211 186.032C211.889 186.031 212.769 186.206 213.59 186.546C214.411 186.885 215.157 187.384 215.786 188.012C216.414 188.64 216.912 189.387 217.252 190.208C217.592 191.029 217.766 191.909 217.765 192.798C217.766 193.686 217.592 194.566 217.252 195.387C216.912 196.209 216.414 196.955 215.786 197.583C215.157 198.212 214.411 198.71 213.59 199.05C212.769 199.389 211.889 199.564 211 199.563V199.563Z" fill="url(#paint1_linear_548:2)"/>
</g>
<g clip-path="url(#clip2_548:2)">
<path d="M775.486 36.1245C757.873 41.1109 761.135 48.4377 761.135 48.4377L763.395 56.3456L780.203 51.5872L780.876 53.963L757.392 60.6113C757.392 60.6113 745.759 62.5239 750.79 80.2955C755.822 98.0677 765.481 94.6525 765.481 94.6525L771.351 92.9904L769.017 84.7434C769.017 84.7434 765.915 74.9956 775.912 72.1655L792.583 67.446C792.583 67.446 801.992 64.9458 799.386 55.7425L795.078 40.5254C795.078 40.5254 793.893 30.9134 775.486 36.1245ZM767.725 44.0699C768.122 43.9571 768.537 43.9237 768.947 43.9716C769.357 44.0196 769.754 44.1479 770.114 44.3492C770.475 44.5506 770.792 44.821 771.047 45.145C771.303 45.4691 771.493 45.8403 771.605 46.2376C771.717 46.6347 771.751 47.0501 771.703 47.4601C771.655 47.8701 771.527 48.2667 771.325 48.627C771.124 48.9874 770.854 49.3045 770.53 49.5603C770.205 49.816 769.834 50.0053 769.437 50.1174C769.04 50.2302 768.624 50.2636 768.214 50.2157C767.804 50.1677 767.408 50.0394 767.048 49.8381C766.687 49.6368 766.37 49.3663 766.114 49.0423C765.859 48.7183 765.669 48.347 765.557 47.9497C765.444 47.5526 765.411 47.1372 765.459 46.7272C765.507 46.3172 765.635 45.9206 765.836 45.5603C766.038 45.1999 766.308 44.8828 766.632 44.6271C766.956 44.3713 767.328 44.182 767.725 44.0699V44.0699Z" fill="#25252F"/>
<path d="M795.525 105.003C813.139 100.017 809.877 92.69 809.877 92.69L807.617 84.7825L790.808 89.5409L790.136 87.1651L813.62 80.5168C813.62 80.5168 825.252 78.6042 820.221 60.832C815.19 43.0601 805.531 46.4754 805.531 46.4754L799.66 48.1374L801.995 56.3841C801.995 56.3841 805.096 66.1319 795.099 68.962L778.429 73.6815C778.429 73.6815 769.02 76.1817 771.625 85.3853L775.933 100.603C775.933 100.603 777.118 110.214 795.525 105.003L795.525 105.003ZM803.287 97.0584C802.89 97.1712 802.474 97.2046 802.064 97.1567C801.654 97.1087 801.258 96.9804 800.898 96.7791C800.537 96.5777 800.22 96.3073 799.964 95.9833C799.709 95.6592 799.519 95.288 799.407 94.8907C799.294 94.4936 799.261 94.0781 799.309 93.6681C799.357 93.2581 799.485 92.8615 799.686 92.5011C799.888 92.1407 800.158 91.8236 800.482 91.5678C800.806 91.3121 801.178 91.1227 801.575 91.0106C801.972 90.8978 802.387 90.8644 802.797 90.9123C803.207 90.9603 803.604 91.0886 803.964 91.2899C804.325 91.4913 804.642 91.7617 804.897 92.0857C805.153 92.4098 805.343 92.781 805.455 93.1783C805.567 93.5754 805.601 93.9908 805.553 94.4008C805.505 94.8109 805.377 95.2074 805.175 95.5677C804.974 95.9281 804.704 96.2452 804.379 96.501C804.055 96.7567 803.684 96.946 803.287 97.0581L803.287 97.0584Z" fill="#363645"/>
</g>
<path d="M840.168 76.0989L842.294 83.6109L836.957 85.122L830.689 62.9813L839.524 60.4801C841.217 60.0008 842.801 59.8918 844.277 60.1529C845.759 60.4011 847.019 61.0026 848.056 61.9574C849.1 62.8992 849.829 64.1 850.242 65.5598C850.853 67.7191 850.567 69.6671 849.384 71.4039C848.207 73.1276 846.271 74.3712 843.574 75.1346L840.168 76.0989ZM839.001 71.9779L842.499 70.9878C843.533 70.6951 844.245 70.2141 844.636 69.545C845.037 68.873 845.104 68.0656 844.837 67.1228C844.545 66.0887 844.032 65.3414 843.299 64.8809C842.567 64.4203 841.717 64.3213 840.751 64.5838L837.193 65.5912L839.001 71.9779ZM861.795 70.3376L861.906 60.2867L867.396 58.7326L866.127 79.8369L866.036 80.6182C865.686 83.0169 864.304 84.5578 861.891 85.2409C861.222 85.4303 860.489 85.5284 859.691 85.5351L858.654 81.8703L859.323 81.6809C860.043 81.4772 860.56 81.2157 860.875 80.8967C861.203 80.5848 861.382 80.1345 861.412 79.5455L861.513 78.3344L851.094 63.3476L856.569 61.7978L861.795 70.3376ZM873.552 52.5714L874.71 56.6619L877.417 55.8956L878.424 59.4539L875.717 60.2202L877.848 67.7474C878.023 68.3658 878.257 68.7651 878.549 68.9453C878.841 69.1255 879.316 69.1223 879.975 68.9357C880.482 68.7922 880.899 68.6413 881.226 68.4829L882.264 72.1476C881.425 72.7028 880.503 73.1224 879.5 73.4066C877.736 73.9059 876.315 73.8591 875.239 73.266C874.162 72.6729 873.384 71.5299 872.904 69.8369L870.593 61.671L868.494 62.2651L867.487 58.7068L869.585 58.1127L868.427 54.0221L873.552 52.5714ZM884.957 55.6664C885.661 53.9777 886.865 52.8922 888.568 52.4101C890.383 51.8964 891.903 52.0462 893.13 52.8596C894.357 53.6731 895.278 55.1261 895.892 57.2189L898.832 67.6049L893.692 69.06L890.787 58.7956C890.54 57.9238 890.182 57.3354 889.712 57.0303C889.239 56.7151 888.577 56.678 887.726 56.9191C886.671 57.2176 886.021 57.7631 885.775 58.5556L889.115 70.3558L883.991 71.8066L877.378 48.4494L882.503 46.9986L884.957 55.6664ZM898.665 58.6019C898.2 56.9596 898.106 55.4094 898.383 53.9512C898.657 52.483 899.295 51.2348 900.296 50.2068C901.297 49.1788 902.604 48.4366 904.216 47.9802C906.679 47.2828 908.837 47.4986 910.69 48.6276C912.54 49.7465 913.836 51.6187 914.579 54.2444L914.631 54.4269C915.357 56.9917 915.219 59.2317 914.218 61.1469C913.223 63.0491 911.509 64.3445 909.076 65.0333C906.734 65.6963 904.656 65.5292 902.841 64.532C901.022 63.5247 899.717 61.8355 898.926 59.4644L898.665 58.6019ZM903.88 57.4705C904.311 58.9911 904.865 60.0388 905.542 60.6136C906.219 61.1883 907.024 61.3437 907.957 61.0796C909.782 60.563 910.317 58.8949 909.562 56.0753L909.416 55.5583C908.581 52.6082 907.221 51.4001 905.335 51.9339C903.622 52.419 903.054 53.9539 903.633 56.5386L903.88 57.4705ZM919.219 44.0612L919.933 45.945C920.647 44.1334 922.002 42.9448 923.999 42.3794C925.713 41.8944 927.135 42.0448 928.266 42.8304C929.408 43.6133 930.285 45.0294 930.898 47.0787L933.898 57.6776L928.759 59.1327L925.818 48.7467C925.583 47.9154 925.243 47.3545 924.8 47.064C924.353 46.7633 923.689 46.7378 922.807 46.9875C921.804 47.2716 921.17 47.8779 920.908 48.8064L924.197 60.4242L919.072 61.875L914.414 45.4216L919.219 44.0612Z" fill="#24242E"/>
<g clip-path="url(#clip3_548:2)">
<path d="M1484.49 54.1245C1466.87 59.1109 1470.14 66.4377 1470.14 66.4377L1472.39 74.3456L1489.2 69.5872L1489.88 71.963L1466.39 78.6113C1466.39 78.6113 1454.76 80.5239 1459.79 98.2955C1464.82 116.068 1474.48 112.652 1474.48 112.652L1480.35 110.99L1478.02 102.743C1478.02 102.743 1474.92 92.9956 1484.91 90.1655L1501.58 85.446C1501.58 85.446 1510.99 82.9458 1508.39 73.7425L1504.08 58.5254C1504.08 58.5254 1502.89 48.9134 1484.49 54.1245ZM1476.72 62.0699C1477.12 61.9571 1477.54 61.9237 1477.95 61.9716C1478.36 62.0196 1478.75 62.1479 1479.11 62.3492C1479.47 62.5506 1479.79 62.821 1480.05 63.145C1480.3 63.4691 1480.49 63.8403 1480.6 64.2376C1480.72 64.6347 1480.75 65.0501 1480.7 65.4601C1480.65 65.8701 1480.53 66.2667 1480.33 66.627C1480.12 66.9874 1479.85 67.3045 1479.53 67.5603C1479.21 67.816 1478.83 68.0053 1478.44 68.1174C1478.04 68.2302 1477.62 68.2636 1477.21 68.2157C1476.8 68.1677 1476.41 68.0394 1476.05 67.8381C1475.69 67.6368 1475.37 67.3663 1475.11 67.0423C1474.86 66.7183 1474.67 66.347 1474.56 65.9497C1474.44 65.5526 1474.41 65.1372 1474.46 64.7272C1474.51 64.3172 1474.64 63.9206 1474.84 63.5603C1475.04 63.1999 1475.31 62.8828 1475.63 62.6271C1475.96 62.3713 1476.33 62.182 1476.72 62.0699V62.0699Z" fill="#2E2E38"/>
<path d="M1504.53 123.003C1522.14 118.017 1518.88 110.69 1518.88 110.69L1516.62 102.782L1499.81 107.541L1499.14 105.165L1522.62 98.5168C1522.62 98.5168 1534.25 96.6042 1529.22 78.832C1524.19 61.0601 1514.53 64.4754 1514.53 64.4754L1508.66 66.1374L1510.99 74.3841C1510.99 74.3841 1514.1 84.1319 1504.1 86.962L1487.43 91.6815C1487.43 91.6815 1478.02 94.1817 1480.63 103.385L1484.93 118.603C1484.93 118.603 1486.12 128.214 1504.53 123.003L1504.53 123.003ZM1512.29 115.058C1511.89 115.171 1511.47 115.205 1511.06 115.157C1510.65 115.109 1510.26 114.98 1509.9 114.779C1509.54 114.578 1509.22 114.307 1508.96 113.983C1508.71 113.659 1508.52 113.288 1508.41 112.891C1508.29 112.494 1508.26 112.078 1508.31 111.668C1508.36 111.258 1508.49 110.861 1508.69 110.501C1508.89 110.141 1509.16 109.824 1509.48 109.568C1509.81 109.312 1510.18 109.123 1510.57 109.011C1510.97 108.898 1511.39 108.864 1511.8 108.912C1512.21 108.96 1512.6 109.089 1512.96 109.29C1513.32 109.491 1513.64 109.762 1513.9 110.086C1514.15 110.41 1514.34 110.781 1514.45 111.178C1514.57 111.575 1514.6 111.991 1514.55 112.401C1514.5 112.811 1514.38 113.207 1514.18 113.568C1513.97 113.928 1513.7 114.245 1513.38 114.501C1513.06 114.757 1512.68 114.946 1512.29 115.058L1512.29 115.058Z" fill="#363645"/>
</g>
<path d="M1549.17 94.0989L1551.29 101.611L1545.96 103.122L1539.69 80.9813L1548.52 78.4801C1550.22 78.0008 1551.8 77.8918 1553.28 78.1529C1554.76 78.4011 1556.02 79.0026 1557.06 79.9574C1558.1 80.8992 1558.83 82.1 1559.24 83.5598C1559.85 85.7191 1559.57 87.6671 1558.38 89.4039C1557.21 91.1276 1555.27 92.3712 1552.57 93.1346L1549.17 94.0989ZM1548 89.9779L1551.5 88.9878C1552.53 88.6951 1553.25 88.2141 1553.64 87.545C1554.04 86.873 1554.1 86.0656 1553.84 85.1228C1553.54 84.0887 1553.03 83.3414 1552.3 82.8809C1551.57 82.4203 1550.72 82.3213 1549.75 82.5838L1546.19 83.5912L1548 89.9779ZM1570.79 88.3376L1570.91 78.2867L1576.4 76.7326L1575.13 97.8369L1575.04 98.6182C1574.69 101.017 1573.3 102.558 1570.89 103.241C1570.22 103.43 1569.49 103.528 1568.69 103.535L1567.65 99.8703L1568.32 99.6809C1569.04 99.4772 1569.56 99.2157 1569.87 98.8967C1570.2 98.5848 1570.38 98.1345 1570.41 97.5455L1570.51 96.3344L1560.09 81.3476L1565.57 79.7978L1570.79 88.3376ZM1582.55 70.5714L1583.71 74.6619L1586.42 73.8956L1587.42 77.4539L1584.72 78.2202L1586.85 85.7474C1587.02 86.3658 1587.26 86.7651 1587.55 86.9453C1587.84 87.1255 1588.32 87.1223 1588.97 86.9357C1589.48 86.7922 1589.9 86.6413 1590.23 86.4829L1591.26 90.1476C1590.42 90.7028 1589.5 91.1224 1588.5 91.4066C1586.74 91.9059 1585.32 91.8591 1584.24 91.266C1583.16 90.6729 1582.38 89.5299 1581.9 87.8369L1579.59 79.671L1577.49 80.2651L1576.49 76.7068L1578.59 76.1127L1577.43 72.0221L1582.55 70.5714ZM1593.96 73.6664C1594.66 71.9777 1595.87 70.8922 1597.57 70.4101C1599.38 69.8964 1600.9 70.0462 1602.13 70.8596C1603.36 71.6731 1604.28 73.1261 1604.89 75.2189L1607.83 85.6049L1602.69 87.06L1599.79 76.7956C1599.54 75.9238 1599.18 75.3354 1598.71 75.0303C1598.24 74.7151 1597.58 74.678 1596.73 74.9191C1595.67 75.2176 1595.02 75.7631 1594.77 76.5556L1598.12 88.3558L1592.99 89.8066L1586.38 66.4494L1591.5 64.9986L1593.96 73.6664ZM1607.67 76.6019C1607.2 74.9596 1607.11 73.4094 1607.38 71.9512C1607.66 70.483 1608.3 69.2348 1609.3 68.2068C1610.3 67.1788 1611.6 66.4366 1613.22 65.9802C1615.68 65.2828 1617.84 65.4986 1619.69 66.6276C1621.54 67.7465 1622.84 69.6187 1623.58 72.2444L1623.63 72.4269C1624.36 74.9917 1624.22 77.2317 1623.22 79.1469C1622.22 81.0491 1620.51 82.3445 1618.08 83.0333C1615.73 83.6963 1613.66 83.5292 1611.84 82.532C1610.02 81.5247 1608.72 79.8355 1607.93 77.4644L1607.67 76.6019ZM1612.88 75.4705C1613.31 76.9911 1613.86 78.0388 1614.54 78.6136C1615.22 79.1883 1616.02 79.3437 1616.96 79.0796C1618.78 78.563 1619.32 76.8949 1618.56 74.0753L1618.42 73.5583C1617.58 70.6082 1616.22 69.4001 1614.33 69.9339C1612.62 70.419 1612.05 71.9539 1612.63 74.5386L1612.88 75.4705ZM1628.22 62.0612L1628.93 63.945C1629.65 62.1334 1631 60.9448 1633 60.3794C1634.71 59.8944 1636.13 60.0448 1637.27 60.8304C1638.41 61.6133 1639.28 63.0294 1639.9 65.0787L1642.9 75.6776L1637.76 77.1327L1634.82 66.7467C1634.58 65.9154 1634.24 65.3545 1633.8 65.064C1633.35 64.7633 1632.69 64.7378 1631.81 64.9875C1630.8 65.2716 1630.17 65.8779 1629.91 66.8064L1633.2 78.4242L1628.07 79.875L1623.41 63.4216L1628.22 62.0612Z" fill="#34343D"/>
<g clip-path="url(#clip4_548:2)">
<path d="M885.09 160.573C858.088 152.123 856.109 164.36 856.109 164.36L852.342 176.502L878.11 184.566L876.97 188.208L840.968 176.941C840.968 176.941 824.302 169.574 815.775 196.819C807.248 224.066 822.632 227.819 822.632 227.819L831.633 230.636L835.59 217.993C835.59 217.993 839.824 202.759 855.15 207.556L880.708 215.554C880.708 215.554 894.994 220.279 899.41 206.17L906.711 182.841C906.711 182.841 913.31 169.405 885.09 160.573ZM868.328 164.285C868.938 164.475 869.503 164.783 869.993 165.192C870.483 165.601 870.887 166.103 871.183 166.668C871.479 167.233 871.66 167.851 871.717 168.487C871.774 169.122 871.704 169.763 871.513 170.372C871.323 170.981 871.015 171.546 870.606 172.036C870.197 172.526 869.696 172.93 869.131 173.226C868.565 173.522 867.947 173.703 867.312 173.76C866.676 173.817 866.036 173.748 865.427 173.557C864.818 173.367 864.252 173.058 863.762 172.649C863.273 172.241 862.868 171.739 862.572 171.174C862.277 170.608 862.095 169.99 862.038 169.355C861.982 168.719 862.051 168.079 862.242 167.47C862.432 166.861 862.74 166.295 863.149 165.806C863.558 165.316 864.059 164.911 864.625 164.616C865.19 164.32 865.808 164.138 866.444 164.082C867.079 164.025 867.72 164.094 868.328 164.285V164.285Z" fill="#25252F"/>
<path d="M852.741 266.627C879.744 275.077 881.723 262.84 881.723 262.84L885.489 250.699L859.721 242.635L860.861 238.992L896.864 250.26C896.864 250.26 913.529 257.627 922.056 230.38C930.583 203.135 915.199 199.381 915.199 199.381L906.198 196.564L902.242 209.207C902.242 209.207 898.007 224.441 882.681 219.644L857.124 211.646C857.124 211.646 842.837 206.92 838.421 221.03L831.12 244.36C831.12 244.36 824.522 257.796 852.741 266.627L852.741 266.627ZM869.503 262.916C868.894 262.726 868.328 262.418 867.838 262.009C867.349 261.6 866.944 261.098 866.648 260.533C866.353 259.968 866.171 259.35 866.114 258.714C866.058 258.079 866.127 257.438 866.318 256.83C866.508 256.22 866.816 255.655 867.225 255.165C867.634 254.675 868.135 254.27 868.701 253.975C869.266 253.679 869.884 253.497 870.52 253.441C871.155 253.384 871.796 253.453 872.405 253.644C873.014 253.834 873.579 254.142 874.069 254.551C874.559 254.96 874.963 255.462 875.259 256.027C875.555 256.592 875.736 257.21 875.793 257.846C875.85 258.481 875.781 259.122 875.589 259.731C875.399 260.34 875.091 260.905 874.682 261.395C874.273 261.885 873.772 262.289 873.207 262.585C872.641 262.881 872.023 263.062 871.388 263.119C870.752 263.176 870.112 263.107 869.503 262.916L869.503 262.916Z" fill="#363645"/>
</g>
<path d="M934.755 267.606L931.15 279.122L922.968 276.561L933.59 242.618L947.135 246.857C949.731 247.669 951.872 248.868 953.56 250.454C955.268 252.03 956.389 253.874 956.923 255.986C957.476 258.088 957.403 260.257 956.703 262.495C955.667 265.806 953.649 268.084 950.648 269.329C947.668 270.563 944.111 270.534 939.977 269.24L934.755 267.606ZM936.732 261.288L942.094 262.966C943.679 263.462 945.008 263.443 946.079 262.908C947.167 262.378 947.936 261.39 948.389 259.945C948.885 258.359 948.854 256.959 948.296 255.743C947.738 254.528 946.723 253.681 945.251 253.204L939.796 251.496L936.732 261.288ZM967.605 278.449L976.252 265.542L984.668 268.176L965.172 294.402L964.394 295.336C961.911 298.143 958.821 298.967 955.122 297.81C954.096 297.489 953.064 296.995 952.027 296.329L953.785 290.711L954.811 291.032C955.915 291.377 956.805 291.477 957.482 291.33C958.17 291.204 958.783 290.773 959.32 290.037L960.475 288.555L959.676 260.354L968.069 262.981L967.605 278.449ZM997.844 265.414L995.881 271.685L1000.03 272.984L998.324 278.439L994.174 277.14L990.563 288.68C990.266 289.628 990.23 290.342 990.455 290.822C990.681 291.302 991.298 291.7 992.309 292.016C993.086 292.26 993.753 292.417 994.311 292.489L992.552 298.108C990.997 298.116 989.45 297.879 987.911 297.398C985.207 296.551 983.409 295.289 982.518 293.611C981.627 291.933 981.588 289.796 982.4 287.2L986.318 274.681L983.101 273.675L984.808 268.219L988.025 269.226L989.988 262.955L997.844 265.414ZM1009.98 279.066C1012.32 277.477 1014.79 277.092 1017.41 277.909C1020.19 278.78 1022.03 280.26 1022.93 282.35C1023.83 284.44 1023.79 287.098 1022.81 290.325L1017.83 306.248L1009.95 303.782L1014.87 288.046C1015.29 286.709 1015.33 285.645 1014.98 284.853C1014.63 284.046 1013.81 283.438 1012.5 283.029C1010.88 282.523 1009.58 282.679 1008.59 283.495L1002.93 301.586L995.074 299.127L1006.28 263.319L1014.14 265.777L1009.98 279.066ZM1025.23 294.461C1026.02 291.943 1027.21 289.858 1028.8 288.206C1030.39 286.539 1032.28 285.464 1034.44 284.981C1036.61 284.498 1038.92 284.643 1041.39 285.416C1045.17 286.598 1047.78 288.703 1049.22 291.731C1050.67 294.743 1050.76 298.262 1049.5 302.287L1049.41 302.567C1048.18 306.499 1046.11 309.28 1043.19 310.91C1040.3 312.529 1036.98 312.755 1033.25 311.588C1029.66 310.464 1027.12 308.49 1025.61 305.664C1024.11 302.823 1023.85 299.534 1024.84 295.797L1025.23 294.461ZM1032.93 297.409C1032.2 299.74 1032.03 301.564 1032.42 302.881C1032.81 304.197 1033.72 305.079 1035.15 305.527C1037.95 306.402 1040.05 304.697 1041.46 300.411L1041.71 299.619C1043.13 295.096 1042.39 292.382 1039.5 291.478C1036.87 290.656 1034.84 292.161 1033.4 295.994L1032.93 297.409ZM1064.12 293.04L1063.45 296.081C1065.9 294.341 1068.66 293.95 1071.72 294.908C1074.35 295.73 1076.06 297.128 1076.86 299.101C1077.68 301.08 1077.61 303.654 1076.67 306.823L1071.59 323.072L1063.71 320.606L1068.69 304.684C1069.09 303.409 1069.12 302.396 1068.8 301.645C1068.47 300.879 1067.64 300.284 1066.28 299.861C1064.75 299.379 1063.41 299.628 1062.29 300.606L1056.71 318.418L1048.86 315.959L1056.75 290.734L1064.12 293.04Z" fill="#24242E"/>
<g clip-path="url(#clip5_548:2)">
<path d="M1012.53 60.6204C984.266 59.298 985.457 71.6372 985.457 71.6372L984.894 84.3368L1011.87 85.5987L1011.69 89.4111L974.003 87.648C974.003 87.648 956.014 84.7507 954.679 113.268C953.345 141.786 969.178 141.513 969.178 141.513L978.599 141.954L979.218 128.721C979.218 128.721 979.449 112.911 995.49 113.662L1022.24 114.913C1022.24 114.913 1037.26 115.859 1037.95 101.091L1039.09 76.6732C1039.09 76.6732 1042.07 62.0023 1012.53 60.6204ZM997.257 68.4638C997.895 68.4931 998.52 68.6477 999.098 68.9189C999.675 69.1901 1000.19 69.5725 1000.62 70.0443C1001.05 70.516 1001.39 71.0679 1001.6 71.6682C1001.82 72.2685 1001.91 72.9056 1001.88 73.5429C1001.85 74.1803 1001.7 74.8056 1001.43 75.3832C1001.16 75.9607 1000.77 76.4791 1000.3 76.9087C999.83 77.3383 999.279 77.6706 998.678 77.8867C998.078 78.1028 997.441 78.1984 996.803 78.168C996.166 78.1387 995.541 77.9841 994.963 77.7129C994.386 77.4417 993.867 77.0593 993.438 76.5875C993.008 76.1158 992.676 75.5639 992.46 74.9636C992.244 74.3633 992.148 73.7262 992.178 73.0889C992.208 72.4515 992.362 71.8262 992.633 71.2486C992.905 70.6711 993.287 70.1527 993.759 69.7231C994.231 69.2935 994.782 68.9612 995.383 68.7451C995.983 68.529 996.62 68.4334 997.257 68.4638V68.4638Z" fill="#25252F"/>
<path d="M1008.15 171.411C1036.41 172.733 1035.22 160.394 1035.22 160.394L1035.78 147.695L1008.81 146.433L1008.99 142.621L1046.67 144.384C1046.67 144.384 1064.66 147.281 1066 118.763C1067.33 90.2452 1051.5 90.518 1051.5 90.518L1042.08 90.0773L1041.46 103.31C1041.46 103.31 1041.23 119.12 1025.19 118.369L998.437 117.118C998.437 117.118 983.419 116.172 982.728 130.94L981.585 155.359C981.585 155.359 978.612 170.029 1008.15 171.411L1008.15 171.411ZM1023.42 163.568C1022.78 163.539 1022.16 163.385 1021.58 163.113C1021 162.842 1020.48 162.46 1020.05 161.988C1019.62 161.516 1019.29 160.964 1019.08 160.364C1018.86 159.764 1018.76 159.127 1018.79 158.489C1018.82 157.852 1018.98 157.227 1019.25 156.649C1019.52 156.071 1019.9 155.553 1020.38 155.123C1020.85 154.694 1021.4 154.361 1022 154.145C1022.6 153.929 1023.24 153.834 1023.87 153.864C1024.51 153.893 1025.14 154.048 1025.71 154.319C1026.29 154.59 1026.81 154.973 1027.24 155.444C1027.67 155.916 1028 156.468 1028.22 157.068C1028.43 157.669 1028.53 158.306 1028.5 158.943C1028.47 159.58 1028.32 160.206 1028.04 160.783C1027.77 161.361 1027.39 161.879 1026.92 162.309C1026.45 162.738 1025.9 163.071 1025.29 163.287C1024.69 163.503 1024.06 163.598 1023.42 163.568L1023.42 163.568Z" fill="#363645"/>
</g>
<path d="M1087.73 151.548L1087.16 163.602L1078.6 163.201L1080.26 127.673L1094.44 128.337C1097.15 128.464 1099.53 129.08 1101.56 130.186C1103.62 131.277 1105.17 132.776 1106.22 134.684C1107.29 136.576 1107.77 138.693 1107.66 141.036C1107.5 144.501 1106.12 147.216 1103.54 149.182C1100.97 151.132 1097.52 152.006 1093.19 151.804L1087.73 151.548ZM1088.04 144.935L1093.65 145.198C1095.31 145.275 1096.59 144.92 1097.49 144.13C1098.41 143.342 1098.9 142.191 1098.97 140.678C1099.05 139.019 1098.66 137.672 1097.81 136.638C1096.97 135.604 1095.77 135.043 1094.23 134.954L1088.52 134.687L1088.04 144.935ZM1122.25 153.701L1127.34 139.022L1136.15 139.434L1123.95 169.749L1123.43 170.85C1121.74 174.195 1118.96 175.777 1115.09 175.595C1114.02 175.545 1112.89 175.33 1111.72 174.949L1112 169.068L1113.07 169.118C1114.23 169.172 1115.11 169.043 1115.73 168.729C1116.36 168.433 1116.85 167.86 1117.18 167.012L1117.92 165.286L1109.99 138.21L1118.78 138.621L1122.25 153.701ZM1148.19 133.42L1147.89 139.983L1152.23 140.187L1151.96 145.897L1147.62 145.693L1147.06 157.772C1147.01 158.764 1147.16 159.464 1147.5 159.871C1147.83 160.278 1148.53 160.507 1149.59 160.556C1150.4 160.594 1151.09 160.577 1151.65 160.506L1151.37 166.386C1149.87 166.789 1148.31 166.952 1146.7 166.877C1143.87 166.745 1141.81 165.98 1140.53 164.583C1139.24 163.186 1138.66 161.129 1138.78 158.412L1139.4 145.309L1136.03 145.151L1136.3 139.441L1139.66 139.599L1139.97 133.035L1148.19 133.42ZM1163.4 143.546C1165.26 141.416 1167.55 140.414 1170.29 140.542C1173.2 140.679 1175.35 141.643 1176.75 143.437C1178.15 145.231 1178.79 147.812 1178.67 151.181L1177.89 167.847L1169.64 167.461L1170.41 150.99C1170.47 149.591 1170.24 148.553 1169.7 147.876C1169.16 147.182 1168.21 146.803 1166.84 146.739C1165.15 146.66 1163.93 147.141 1163.18 148.182L1162.29 167.117L1154.07 166.733L1155.82 129.252L1164.05 129.637L1163.4 143.546ZM1182.05 154.567C1182.18 151.932 1182.8 149.613 1183.92 147.612C1185.04 145.594 1186.59 144.077 1188.56 143.06C1190.53 142.044 1192.81 141.596 1195.4 141.717C1199.35 141.902 1202.41 143.276 1204.57 145.839C1206.73 148.386 1207.71 151.766 1207.52 155.979L1207.5 156.272C1207.31 160.387 1206.01 163.603 1203.6 165.92C1201.21 168.221 1198.07 169.28 1194.16 169.097C1190.41 168.922 1187.44 167.658 1185.27 165.307C1183.1 162.939 1182.01 159.823 1182.01 155.959L1182.05 154.567ZM1190.25 155.464C1190.14 157.905 1190.44 159.712 1191.15 160.886C1191.86 162.061 1192.96 162.683 1194.46 162.753C1197.39 162.89 1198.99 160.707 1199.27 156.204L1199.3 155.374C1199.53 150.641 1198.12 148.203 1195.1 148.061C1192.35 147.933 1190.77 149.905 1190.35 153.977L1190.25 155.464ZM1219.31 143.325L1219.43 146.437C1221.37 144.131 1223.94 143.052 1227.14 143.202C1229.89 143.331 1231.9 144.248 1233.17 145.955C1234.46 147.662 1235.06 150.167 1234.95 153.472L1234.15 170.479L1225.91 170.094L1226.69 153.428C1226.75 152.094 1226.53 151.105 1226.02 150.462C1225.51 149.802 1224.55 149.439 1223.14 149.373C1221.52 149.298 1220.3 149.876 1219.46 151.109L1218.59 169.751L1210.36 169.366L1211.6 142.964L1219.31 143.325Z" fill="#24242E"/>
<g clip-path="url(#clip6_548:2)">
<path d="M1109.45 215.672C1096.96 220.725 1099.93 225.824 1099.93 225.824L1102.22 231.429L1114.13 226.606L1114.82 228.291L1098.17 235.028C1098.17 235.028 1089.81 237.356 1094.91 249.954C1100.01 262.553 1106.8 259.284 1106.8 259.284L1110.96 257.6L1108.6 251.753C1108.6 251.753 1105.55 244.87 1112.64 242.002L1124.46 237.219C1124.46 237.219 1131.14 234.639 1128.5 228.115L1124.13 217.327C1124.13 217.327 1122.5 210.39 1109.45 215.672ZM1104.41 222.103C1104.69 221.989 1104.99 221.931 1105.29 221.934C1105.6 221.936 1105.9 221.998 1106.18 222.117C1106.46 222.235 1106.71 222.408 1106.92 222.625C1107.14 222.841 1107.3 223.098 1107.42 223.379C1107.53 223.661 1107.59 223.962 1107.59 224.266C1107.58 224.57 1107.52 224.87 1107.4 225.149C1107.29 225.429 1107.11 225.683 1106.9 225.896C1106.68 226.109 1106.42 226.277 1106.14 226.39C1105.86 226.505 1105.56 226.562 1105.25 226.56C1104.95 226.558 1104.65 226.495 1104.37 226.377C1104.09 226.258 1103.84 226.086 1103.63 225.869C1103.41 225.653 1103.24 225.396 1103.13 225.114C1103.02 224.833 1102.96 224.532 1102.96 224.228C1102.96 223.924 1103.03 223.624 1103.14 223.344C1103.26 223.065 1103.43 222.811 1103.65 222.598C1103.87 222.385 1104.12 222.217 1104.41 222.103V222.103Z" fill="#25252F"/>
<path d="M1129.61 264.458C1142.09 259.404 1139.12 254.305 1139.12 254.305L1136.84 248.701L1124.92 253.523L1124.24 251.839L1140.89 245.101C1140.89 245.101 1149.24 242.774 1144.15 230.175C1139.05 217.576 1132.25 220.845 1132.25 220.845L1128.09 222.53L1130.46 228.376C1130.46 228.376 1133.5 235.259 1126.42 238.127L1114.6 242.91C1114.6 242.91 1107.92 245.49 1110.56 252.015L1114.92 262.802C1114.92 262.802 1116.56 269.739 1129.61 264.458L1129.61 264.458ZM1134.65 258.026C1134.37 258.141 1134.07 258.198 1133.76 258.196C1133.46 258.194 1133.16 258.131 1132.88 258.013C1132.6 257.894 1132.35 257.722 1132.13 257.505C1131.92 257.289 1131.75 257.032 1131.64 256.75C1131.52 256.469 1131.47 256.168 1131.47 255.864C1131.47 255.56 1131.53 255.26 1131.65 254.98C1131.77 254.7 1131.94 254.447 1132.16 254.234C1132.38 254.021 1132.63 253.853 1132.91 253.739C1133.2 253.625 1133.5 253.567 1133.8 253.57C1134.1 253.572 1134.41 253.634 1134.68 253.753C1134.96 253.871 1135.22 254.044 1135.43 254.26C1135.64 254.477 1135.81 254.733 1135.93 255.015C1136.04 255.297 1136.1 255.598 1136.1 255.902C1136.09 256.205 1136.03 256.506 1135.91 256.785C1135.79 257.065 1135.62 257.319 1135.4 257.531C1135.19 257.744 1134.93 257.913 1134.65 258.026L1134.65 258.026Z" fill="#363645"/>
</g>
<path d="M1159.93 239.68L1162.08 245.006L1158.3 246.537L1151.95 230.841L1158.21 228.307C1159.41 227.821 1160.56 227.615 1161.66 227.688C1162.76 227.751 1163.73 228.09 1164.57 228.706C1165.41 229.312 1166.04 230.132 1166.46 231.167C1167.08 232.698 1167.02 234.146 1166.29 235.51C1165.57 236.865 1164.25 237.93 1162.34 238.703L1159.93 239.68ZM1158.75 236.759L1161.22 235.756C1161.96 235.459 1162.44 235.05 1162.67 234.53C1162.91 234.006 1162.9 233.41 1162.63 232.742C1162.33 232.009 1161.9 231.503 1161.32 231.224C1160.75 230.946 1160.12 230.941 1159.44 231.21L1156.91 232.231L1158.75 236.759ZM1175.29 233.74L1174.57 226.379L1178.46 224.804L1179.22 240.343L1179.21 240.922C1179.15 242.704 1178.26 243.942 1176.55 244.634C1176.07 244.826 1175.55 244.956 1174.96 245.025L1173.91 242.427L1174.39 242.235C1174.9 242.028 1175.25 241.796 1175.46 241.537C1175.67 241.283 1175.77 240.939 1175.74 240.506L1175.72 239.612L1166.9 229.481L1170.78 227.91L1175.29 233.74ZM1182.47 219.805L1183.64 222.705L1185.56 221.928L1186.58 224.451L1184.66 225.228L1186.82 230.564C1187 231.002 1187.2 231.276 1187.43 231.384C1187.66 231.493 1188.01 231.452 1188.48 231.263C1188.83 231.118 1189.13 230.974 1189.35 230.832L1190.41 233.43C1189.84 233.903 1189.2 234.284 1188.48 234.572C1187.23 235.078 1186.19 235.157 1185.36 234.809C1184.52 234.461 1183.86 233.687 1183.37 232.487L1181.03 226.698L1179.54 227.3L1178.52 224.777L1180.01 224.175L1178.84 221.275L1182.47 219.805ZM1191.06 221.159C1191.44 219.867 1192.23 218.977 1193.44 218.489C1194.73 217.968 1195.85 217.956 1196.82 218.453C1197.78 218.95 1198.57 219.94 1199.18 221.422L1202.16 228.785L1198.52 230.259L1195.57 222.983C1195.32 222.365 1195.02 221.963 1194.65 221.777C1194.28 221.584 1193.79 221.61 1193.19 221.854C1192.44 222.157 1192.01 222.608 1191.89 223.207L1195.27 231.573L1191.64 233.043L1184.94 216.485L1188.57 215.014L1191.06 221.159ZM1201.32 222.212C1200.85 221.048 1200.66 219.921 1200.75 218.833C1200.83 217.737 1201.2 216.773 1201.85 215.941C1202.5 215.109 1203.39 214.462 1204.53 213.999C1206.28 213.292 1207.88 213.278 1209.32 213.956C1210.77 214.627 1211.86 215.893 1212.62 217.754L1212.67 217.884C1213.4 219.702 1213.48 221.352 1212.9 222.832C1212.33 224.303 1211.18 225.388 1209.45 226.086C1207.79 226.758 1206.26 226.801 1204.85 226.217C1203.44 225.625 1202.35 224.494 1201.58 222.822L1201.32 222.212ZM1205.05 220.968C1205.48 222.046 1205.97 222.768 1206.51 223.135C1207.05 223.501 1207.66 223.551 1208.32 223.283C1209.61 222.759 1209.87 221.497 1209.09 219.494L1208.94 219.128C1208.1 217.036 1207.01 216.261 1205.67 216.802C1204.45 217.294 1204.16 218.462 1204.79 220.306L1205.05 220.968ZM1215.2 209.935L1215.87 211.256C1216.25 209.874 1217.14 208.896 1218.56 208.323C1219.77 207.832 1220.83 207.828 1221.72 208.312C1222.61 208.794 1223.37 209.76 1223.98 211.21L1227.02 218.724L1223.38 220.198L1220.4 212.836C1220.16 212.246 1219.87 211.863 1219.52 211.686C1219.17 211.502 1218.68 211.536 1218.06 211.789C1217.34 212.077 1216.93 212.571 1216.81 213.271L1220.14 221.507L1216.51 222.978L1211.79 211.314L1215.2 209.935Z" fill="#24242E"/>
<g clip-path="url(#clip7_548:2)">
<path d="M1188.62 1.50327C1163.28 11.7583 1169.31 22.1064 1169.31 22.1064L1173.94 33.4793L1198.12 23.6932L1199.51 27.111L1165.72 40.7841C1165.72 40.7841 1148.76 45.5074 1159.11 71.0741C1169.46 96.6415 1183.24 90.0071 1183.24 90.0071L1191.69 86.5889L1186.89 74.7246C1186.89 74.7246 1180.7 60.7567 1195.09 54.9362L1219.07 45.2301C1219.07 45.2301 1232.63 39.9946 1227.27 26.7545L1218.41 4.86292C1218.41 4.86292 1215.1 -9.21393 1188.62 1.50327ZM1178.38 14.5551C1178.95 14.3233 1179.56 14.2065 1180.18 14.2112C1180.8 14.2159 1181.41 14.3422 1181.97 14.5827C1182.54 14.8232 1183.06 15.1733 1183.49 15.6129C1183.92 16.0525 1184.26 16.573 1184.49 17.1446C1184.72 17.7158 1184.84 18.3271 1184.84 18.9435C1184.83 19.5599 1184.7 20.1693 1184.46 20.7369C1184.22 21.3044 1183.87 21.819 1183.43 22.2511C1182.99 22.6832 1182.47 23.0244 1181.9 23.2551C1181.33 23.4869 1180.72 23.6038 1180.1 23.599C1179.49 23.5943 1178.88 23.4681 1178.31 23.2275C1177.74 22.987 1177.23 22.6369 1176.8 22.1973C1176.36 21.7577 1176.02 21.2372 1175.79 20.6656C1175.56 20.0945 1175.44 19.4832 1175.45 18.8668C1175.45 18.2504 1175.58 17.6409 1175.82 17.0734C1176.06 16.5058 1176.41 15.9913 1176.85 15.5591C1177.29 15.127 1177.81 14.7858 1178.38 14.5551V14.5551Z" fill="#25252F"/>
<path d="M1229.52 100.506C1254.86 90.2509 1248.83 79.9028 1248.83 79.9028L1244.19 68.5303L1220.01 78.3166L1218.63 74.8987L1252.41 61.2256C1252.41 61.2256 1269.37 56.5023 1259.03 30.9349C1248.68 5.36784 1234.89 12.0022 1234.89 12.0022L1226.45 15.4204L1231.25 27.2843C1231.25 27.2843 1237.43 41.2523 1223.05 47.0728L1199.07 56.7789C1199.07 56.7789 1185.51 62.0144 1190.86 75.2548L1199.72 97.1468C1199.72 97.1468 1203.04 111.223 1229.52 100.506L1229.52 100.506ZM1239.76 87.4549C1239.18 87.6866 1238.57 87.8035 1237.96 87.7988C1237.34 87.794 1236.73 87.6678 1236.16 87.4273C1235.6 87.1867 1235.08 86.8367 1234.65 86.3971C1234.22 85.9575 1233.88 85.437 1233.64 84.8654C1233.41 84.2942 1233.3 83.6828 1233.3 83.0664C1233.31 82.45 1233.43 81.8405 1233.67 81.2729C1233.91 80.7053 1234.26 80.1907 1234.7 79.7585C1235.14 79.3264 1235.66 78.9852 1236.23 78.7544C1236.81 78.5227 1237.42 78.4058 1238.03 78.4105C1238.65 78.4153 1239.26 78.5415 1239.83 78.782C1240.39 79.0225 1240.91 79.3726 1241.34 79.8122C1241.77 80.2518 1242.11 80.7723 1242.34 81.3439C1242.58 81.9151 1242.69 82.5264 1242.69 83.1428C1242.68 83.7592 1242.56 84.3686 1242.32 84.9362C1242.08 85.5037 1241.73 86.0183 1241.29 86.4504C1240.85 86.8825 1240.33 87.2237 1239.76 87.4545L1239.76 87.4549Z" fill="#363645"/>
</g>
<path d="M1291.18 50.554L1295.56 61.361L1287.88 64.4686L1274.99 32.6166L1287.7 27.4726C1290.13 26.4869 1292.47 26.0684 1294.7 26.2171C1296.94 26.3453 1298.91 27.0342 1300.6 28.2836C1302.31 29.5125 1303.58 31.1771 1304.43 33.2772C1305.69 36.3837 1305.58 39.3218 1304.11 42.0917C1302.64 44.841 1299.96 47.0008 1296.09 48.5708L1291.18 50.554ZM1288.79 44.6255L1293.82 42.5892C1295.3 41.9871 1296.28 41.1578 1296.76 40.1012C1297.24 39.0386 1297.21 37.8292 1296.66 36.4729C1296.06 34.9853 1295.18 33.959 1294.02 33.394C1292.85 32.829 1291.58 32.8195 1290.19 33.3657L1285.07 35.4375L1288.79 44.6255ZM1322.36 38.4985L1320.89 23.5602L1328.79 20.364L1330.33 51.8984L1330.32 53.0729C1330.19 56.6904 1328.38 59.2016 1324.91 60.6064C1323.95 60.996 1322.88 61.2603 1321.7 61.3995L1319.56 56.1273L1320.52 55.7378C1321.56 55.3187 1322.29 54.8468 1322.7 54.3222C1323.14 53.8062 1323.33 53.1086 1323.28 52.2294L1323.23 50.4152L1305.34 29.8552L1313.21 26.6679L1322.36 38.4985ZM1336.93 10.2207L1339.31 16.1054L1343.21 14.5294L1345.28 19.6485L1341.39 21.2245L1345.77 32.0533C1346.13 32.9429 1346.54 33.4978 1347 33.718C1347.46 33.9382 1348.17 33.8564 1349.12 33.4728C1349.85 33.1776 1350.44 32.886 1350.9 32.5978L1353.04 37.87C1351.88 38.8301 1350.58 39.6023 1349.14 40.1866C1346.6 41.2136 1344.48 41.3742 1342.79 40.6682C1341.09 39.9621 1339.75 38.3914 1338.77 35.9558L1334.01 24.2082L1330.99 25.43L1328.92 20.3109L1331.94 19.0891L1329.56 13.2044L1336.93 10.2207ZM1354.36 12.9678C1355.14 10.3469 1356.75 8.54064 1359.2 7.54903C1361.81 6.49249 1364.09 6.46862 1366.04 7.47743C1367.99 8.48623 1369.6 10.4942 1370.85 13.5013L1376.89 28.4429L1369.5 31.4355L1363.52 16.6689C1363.02 15.4147 1362.39 14.5991 1361.64 14.2224C1360.89 13.831 1359.9 13.8832 1358.68 14.379C1357.16 14.9929 1356.28 15.908 1356.05 17.1244L1362.92 34.1004L1355.54 37.0841L1341.94 3.482L1349.32 0.498303L1354.36 12.9678ZM1375.19 15.1052C1374.23 12.7426 1373.84 10.4565 1374.02 8.24705C1374.19 6.023 1374.93 4.06686 1376.25 2.37864C1377.57 0.690416 1379.39 -0.62294 1381.71 -1.56143C1385.25 -2.99573 1388.49 -3.02494 1391.42 -1.64907C1394.35 -0.287776 1396.58 2.28153 1398.11 6.05885L1398.21 6.32137C1399.71 10.0112 1399.87 13.3587 1398.69 16.364C1397.52 19.3489 1395.19 21.5496 1391.69 22.9662C1388.32 24.3296 1385.2 24.4182 1382.35 23.2319C1379.49 22.0311 1377.27 19.7349 1375.72 16.3433L1375.19 15.1052ZM1382.75 12.5809C1383.63 14.7686 1384.62 16.2341 1385.72 16.9776C1386.82 17.7211 1388.04 17.8213 1389.38 17.2783C1392.01 16.2159 1392.53 13.6529 1390.96 9.58946L1390.66 8.84566C1388.94 4.60165 1386.72 3.02857 1384.01 4.12643C1381.55 5.12394 1380.95 7.49434 1382.23 11.2376L1382.75 12.5809ZM1403.35 -9.80939L1404.71 -7.12848C1405.48 -9.93344 1407.3 -11.9173 1410.17 -13.0801C1412.63 -14.0776 1414.77 -14.0848 1416.58 -13.1017C1418.4 -12.1245 1419.93 -10.1645 1421.17 -7.22157L1427.34 8.02627L1419.95 11.0188L1413.9 -3.92275C1413.42 -5.11866 1412.82 -5.89632 1412.12 -6.25574C1411.4 -6.62975 1410.41 -6.55999 1409.15 -6.04648C1407.7 -5.46213 1406.86 -4.45952 1406.62 -3.03863L1413.38 13.6749L1406.01 16.6586L1396.43 -7.01162L1403.35 -9.80939Z" fill="#24242E"/>
<g clip-path="url(#clip8_548:2)">
<path d="M1411.15 97.7124C1388.41 82.5479 1383.25 93.3576 1383.25 93.3576L1376.46 103.593L1398.17 118.064L1396.12 121.132L1365.8 100.913C1365.8 100.913 1352.35 89.5584 1337.04 112.506C1321.74 135.455 1334.99 143.111 1334.99 143.111L1342.57 148.165L1349.67 137.516C1349.67 137.516 1357.73 124.541 1370.64 133.148L1392.17 147.501C1392.17 147.501 1404.13 155.76 1412.05 143.876L1425.15 124.227C1425.15 124.227 1434.92 113.56 1411.15 97.7124ZM1394.6 96.6045C1395.12 96.946 1395.56 97.3853 1395.9 97.8974C1396.24 98.4094 1396.48 98.9841 1396.6 99.5886C1396.72 100.193 1396.72 100.815 1396.6 101.42C1396.48 102.025 1396.25 102.6 1395.9 103.112C1395.56 103.625 1395.12 104.066 1394.61 104.409C1394.1 104.753 1393.52 104.992 1392.92 105.112C1392.32 105.233 1391.69 105.234 1391.09 105.114C1390.48 104.994 1389.91 104.756 1389.4 104.413C1388.88 104.072 1388.44 103.633 1388.1 103.12C1387.76 102.608 1387.52 102.034 1387.4 101.429C1387.28 100.825 1387.27 100.202 1387.39 99.5978C1387.51 98.9932 1387.75 98.4181 1388.09 97.9056C1388.44 97.3924 1388.88 96.9516 1389.39 96.6084C1389.9 96.2652 1390.47 96.0264 1391.08 95.9055C1391.68 95.7847 1392.31 95.7842 1392.91 95.9041C1393.52 96.0241 1394.09 96.2621 1394.6 96.6045V96.6045Z" fill="#2E2E3D"/>
<path d="M1352.37 187.265C1375.12 202.43 1380.27 191.62 1380.27 191.62L1387.06 181.385L1365.36 166.914L1367.4 163.846L1397.73 184.065C1397.73 184.065 1411.18 195.419 1426.48 172.471C1441.78 149.523 1428.54 141.867 1428.54 141.867L1420.95 136.812L1413.85 147.461C1413.85 147.461 1405.79 160.436 1392.88 151.829L1371.36 137.476C1371.36 137.476 1359.4 129.217 1351.47 141.101L1338.37 160.751C1338.37 160.751 1328.6 171.417 1352.37 187.265L1352.37 187.265ZM1368.92 188.374C1368.41 188.032 1367.97 187.593 1367.62 187.081C1367.28 186.569 1367.04 185.994 1366.92 185.39C1366.8 184.785 1366.8 184.163 1366.92 183.558C1367.04 182.954 1367.28 182.379 1367.62 181.866C1367.96 181.353 1368.4 180.912 1368.91 180.569C1369.43 180.225 1370 179.986 1370.6 179.866C1371.21 179.745 1371.83 179.744 1372.44 179.864C1373.04 179.984 1373.62 180.222 1374.13 180.565C1374.64 180.906 1375.08 181.345 1375.43 181.857C1375.77 182.369 1376.01 182.944 1376.13 183.549C1376.25 184.153 1376.25 184.775 1376.13 185.38C1376.01 185.985 1375.77 186.56 1375.43 187.072C1375.09 187.586 1374.65 188.026 1374.14 188.369C1373.62 188.713 1373.05 188.952 1372.45 189.072C1371.84 189.193 1371.22 189.194 1370.61 189.074C1370.01 188.954 1369.43 188.716 1368.92 188.373L1368.92 188.374Z" fill="#363645"/>
</g>
<path d="M1428.38 210.094L1421.91 219.794L1415.02 215.199L1434.08 186.609L1445.49 194.216C1447.67 195.674 1449.33 197.367 1450.47 199.296C1451.62 201.22 1452.16 203.234 1452.08 205.337C1452.03 207.436 1451.37 209.428 1450.11 211.313C1448.25 214.101 1445.77 215.666 1442.65 216.006C1439.55 216.342 1436.26 215.349 1432.77 213.027L1428.38 210.094ZM1431.92 204.773L1436.44 207.784C1437.78 208.675 1439.01 209.017 1440.15 208.812C1441.3 208.616 1442.29 207.909 1443.1 206.692C1443.99 205.356 1444.34 204.05 1444.15 202.771C1443.96 201.492 1443.25 200.432 1442.02 199.59L1437.42 196.526L1431.92 204.773ZM1455.89 229.065L1467.41 219.444L1474.5 224.17L1449.31 243.196L1448.33 243.851C1445.27 245.779 1442.18 245.705 1439.06 243.628C1438.2 243.051 1437.38 242.314 1436.6 241.415L1439.75 236.683L1440.61 237.259C1441.54 237.879 1442.34 238.212 1443.01 238.26C1443.68 238.33 1444.37 238.097 1445.07 237.56L1446.54 236.5L1453.45 210.135L1460.52 214.849L1455.89 229.065ZM1487.47 225.186L1483.95 230.468L1487.44 232.798L1484.38 237.393L1480.88 235.062L1474.4 244.782C1473.87 245.58 1473.64 246.233 1473.72 246.739C1473.8 247.245 1474.26 247.782 1475.11 248.349C1475.77 248.786 1476.35 249.113 1476.84 249.331L1473.69 254.063C1472.24 253.649 1470.87 253.009 1469.58 252.145C1467.3 250.627 1465.98 248.968 1465.6 247.17C1465.23 245.373 1465.78 243.381 1467.23 241.195L1474.27 230.65L1471.56 228.844L1474.62 224.249L1477.33 226.056L1480.85 220.774L1487.47 225.186ZM1495.01 241.138C1497.61 240.3 1500.01 240.614 1502.21 242.081C1504.56 243.643 1505.86 245.515 1506.13 247.697C1506.39 249.879 1505.64 252.333 1503.86 255.06L1494.91 268.472L1488.28 264.046L1497.11 250.792C1497.86 249.667 1498.19 248.689 1498.08 247.86C1497.98 247.018 1497.38 246.23 1496.28 245.497C1494.92 244.589 1493.67 244.38 1492.53 244.868L1482.37 260.106L1475.75 255.693L1495.86 225.533L1502.48 229.945L1495.01 241.138ZM1504.97 259.551C1506.39 257.43 1508.06 255.82 1509.98 254.72C1511.92 253.608 1513.95 253.121 1516.09 253.261C1518.23 253.401 1520.34 254.165 1522.42 255.553C1525.6 257.674 1527.45 260.333 1527.96 263.532C1528.49 266.717 1527.62 270.005 1525.36 273.396L1525.2 273.631C1522.99 276.943 1520.31 278.959 1517.17 279.679C1514.04 280.394 1510.91 279.705 1507.77 277.61C1504.74 275.594 1502.92 273.071 1502.29 270.043C1501.67 267.001 1502.32 263.881 1504.25 260.683L1504.97 259.551ZM1511.32 264.375C1510.01 266.339 1509.36 267.984 1509.36 269.31C1509.36 270.637 1509.97 271.702 1511.17 272.505C1513.53 274.076 1515.94 273.066 1518.41 269.475L1518.86 268.807C1521.4 264.998 1521.45 262.281 1519.01 260.658C1516.8 259.183 1514.51 260.027 1512.14 263.19L1511.32 264.375ZM1541.42 268.789L1539.97 271.427C1542.72 270.48 1545.39 270.866 1547.96 272.586C1550.18 274.061 1551.39 275.822 1551.59 277.868C1551.81 279.924 1551.05 282.293 1549.32 284.976L1540.19 298.662L1533.56 294.237L1542.5 280.826C1543.21 279.753 1543.52 278.823 1543.42 278.038C1543.33 277.239 1542.71 276.46 1541.58 275.701C1540.28 274.837 1538.98 274.706 1537.67 275.308L1527.67 290.31L1521.05 285.897L1535.21 264.652L1541.42 268.789Z" fill="#34343D"/>
<path d="M303.685 177.193V194H291.743V144.463H311.51C315.298 144.463 318.643 145.166 321.546 146.572C324.472 147.956 326.729 149.94 328.317 152.526C329.927 155.089 330.733 158.004 330.733 161.27C330.733 166.101 328.997 169.969 325.527 172.872C322.08 175.752 317.339 177.193 311.306 177.193H303.685ZM303.685 167.973H311.51C313.823 167.973 315.581 167.394 316.783 166.237C318.008 165.081 318.621 163.448 318.621 161.338C318.621 159.025 317.997 157.176 316.749 155.792C315.502 154.409 313.801 153.706 311.646 153.683H303.685V167.973ZM351.861 177.941L357.985 157.187H370.267L355.263 200.158L354.617 201.723C352.485 206.486 348.719 208.868 343.321 208.868C341.824 208.868 340.248 208.641 338.592 208.188V199.988H340.089C341.699 199.988 342.924 199.75 343.763 199.274C344.625 198.82 345.26 197.992 345.669 196.79L346.587 194.34L333.795 157.187H346.043L351.861 177.941ZM386.632 148.035V157.187H392.688V165.149H386.632V181.99C386.632 183.374 386.882 184.338 387.381 184.882C387.88 185.426 388.866 185.698 390.341 185.698C391.475 185.698 392.427 185.63 393.199 185.494V193.694C391.134 194.352 388.98 194.68 386.734 194.68C382.788 194.68 379.873 193.75 377.99 191.891C376.108 190.031 375.166 187.207 375.166 183.419V165.149H370.471V157.187H375.166V148.035H386.632ZM408.441 161.134C410.89 158.049 414.02 156.507 417.831 156.507C421.891 156.507 424.953 157.709 427.017 160.113C429.081 162.518 430.136 166.067 430.181 170.762V194H418.682V171.035C418.682 169.084 418.285 167.655 417.491 166.748C416.697 165.818 415.347 165.353 413.442 165.353C411.083 165.353 409.416 166.101 408.441 167.598V194H396.975V141.741H408.441V161.134ZM435.115 175.253C435.115 171.579 435.829 168.313 437.258 165.455C438.687 162.574 440.74 160.363 443.416 158.82C446.093 157.278 449.234 156.507 452.84 156.507C458.352 156.507 462.696 158.219 465.871 161.644C469.047 165.047 470.634 169.685 470.634 175.56V175.968C470.634 181.706 469.035 186.265 465.837 189.645C462.662 193.002 458.352 194.68 452.909 194.68C447.669 194.68 443.462 193.115 440.286 189.985C437.111 186.833 435.398 182.568 435.149 177.193L435.115 175.253ZM446.58 175.968C446.58 179.37 447.113 181.865 448.179 183.453C449.245 185.041 450.822 185.835 452.909 185.835C456.991 185.835 459.078 182.693 459.169 176.41V175.253C459.169 168.653 457.059 165.353 452.84 165.353C449.007 165.353 446.932 168.199 446.614 173.893L446.58 175.968ZM486.217 157.187L486.591 161.508C489.131 158.174 492.636 156.507 497.104 156.507C500.937 156.507 503.795 157.652 505.678 159.943C507.583 162.234 508.57 165.682 508.638 170.286V194H497.138V170.762C497.138 168.903 496.764 167.542 496.015 166.68C495.267 165.795 493.906 165.353 491.933 165.353C489.687 165.353 488.02 166.237 486.931 168.007V194H475.466V157.187H486.217Z" fill="#24242E"/>
</g>
<defs>
<linearGradient id="paint0_linear_548:2" x1="127.006" y1="70.9333" x2="203.934" y2="147.094" gradientUnits="userSpaceOnUse">
<stop stop-color="#387EB8"/>
<stop offset="1" stop-color="#366994"/>
</linearGradient>
<linearGradient id="paint1_linear_548:2" x1="174.225" y1="119.839" x2="256.837" y2="197.935" gradientUnits="userSpaceOnUse">
<stop stop-color="#FFE052"/>
<stop offset="1" stop-color="#FFC331"/>
</linearGradient>
<clipPath id="clip0_548:2">
<rect width="1584" height="269" fill="white"/>
</clipPath>
<clipPath id="clip1_548:2">
<rect width="155.608" height="155" fill="white" transform="translate(112 57)"/>
</clipPath>
<clipPath id="clip2_548:2">
<rect width="72.2824" height="72" fill="white" transform="translate(741 45.8662) rotate(-15.8069)"/>
</clipPath>
<clipPath id="clip3_548:2">
<rect width="72.2824" height="72" fill="white" transform="translate(1450 63.8662) rotate(-15.8069)"/>
</clipPath>
<clipPath id="clip4_548:2">
<rect width="111.724" height="111.288" fill="white" transform="translate(832.238 144) rotate(17.3777)"/>
</clipPath>
<clipPath id="clip5_548:2">
<rect width="111.724" height="111.288" fill="white" transform="translate(957.201 58) rotate(2.67874)"/>
</clipPath>
<clipPath id="clip6_548:2">
<rect width="53.1893" height="52.9815" fill="white" transform="translate(1085 225.55) rotate(-22.0339)"/>
</clipPath>
<clipPath id="clip7_548:2">
<rect width="107.938" height="107.516" fill="white" transform="translate(1139 21.5503) rotate(-22.0339)"/>
</clipPath>
<clipPath id="clip8_548:2">
<rect width="107.938" height="107.516" fill="white" transform="translate(1366.65 68) rotate(33.694)"/>
</clipPath>
</defs>
</svg>
