<svg width="1584" height="269" viewBox="0 0 1584 269" fill="none" xmlns="http://www.w3.org/2000/svg">
<g clip-path="url(#clip0_539:10)">
<path d="M1584 0H0V269H1584V0Z" fill="#121214"/>
<ellipse cx="1582.5" cy="134.16" rx="709.5" ry="481.958" fill="#18181B"/>
<ellipse cx="1582.5" cy="134.16" rx="509.072" ry="345.809" fill="#1D1D25"/>
<ellipse cx="1525" cy="133.949" rx="140" ry="149.383" fill="#24242E"/>
<path d="M231.442 159.827C231.442 163.681 230.157 168.178 228.23 172.674C225.661 177.171 222.449 181.667 217.31 185.521C212.171 189.375 206.39 192.587 199.324 195.156C192.258 197.726 183.908 199.01 174.273 199.01C155.002 199.01 139.586 193.229 128.666 181.667C117.746 170.105 111.965 155.331 111.965 136.06C111.965 123.213 114.534 111.651 119.673 101.373C124.812 91.7379 131.877 84.0297 141.513 78.2486C151.148 73.1098 162.068 69.8979 175.557 69.8979C183.908 69.8979 190.974 71.1827 198.04 73.7521C205.105 76.3215 210.887 79.5332 215.383 82.745C219.88 85.9567 223.734 90.4532 226.303 94.9497C228.872 99.4461 230.157 103.3 230.157 107.154C230.157 111.008 228.872 114.22 225.661 116.79C223.091 119.359 219.237 120.644 215.383 120.644C212.814 120.644 210.887 120.001 208.96 118.717C207.033 117.432 205.105 115.505 203.178 112.293C199.324 106.512 195.47 102.015 190.974 98.8037C186.477 95.592 181.338 94.3073 174.915 94.3073C165.28 94.3073 158.214 98.1614 152.433 105.227C146.652 112.293 144.082 122.571 144.082 135.418C144.082 141.199 144.724 146.98 146.009 151.476C147.294 155.973 149.863 160.469 152.433 164.323C155.002 167.535 158.856 170.747 162.71 172.032C166.564 173.959 171.061 174.601 175.557 174.601C181.981 174.601 187.12 173.316 191.616 170.105C196.113 166.893 199.967 162.396 203.821 156.615C205.748 152.761 207.675 150.192 210.244 148.265C212.171 146.338 215.383 145.053 218.595 145.053C222.449 145.053 225.661 146.338 228.23 149.549C230.799 152.761 231.442 156.615 231.442 159.827Z" fill="#20BAF7"/>
<path d="M111.965 132.208C112.607 149.551 118.388 163.683 128.023 173.96C138.943 185.523 154.36 191.304 173.63 191.304C182.623 191.304 190.974 190.019 198.682 187.45C205.748 184.88 212.171 181.669 216.668 177.814C221.807 173.96 225.018 169.464 227.588 164.967C228.872 162.398 230.157 159.186 230.799 156.617C231.442 157.902 231.442 159.186 231.442 159.829C231.442 163.683 230.157 168.179 228.23 172.676C225.661 177.172 222.449 181.669 217.31 185.523C212.171 189.377 206.39 192.588 199.324 195.158C192.258 197.727 183.908 199.012 174.273 199.012C155.002 199.012 139.586 193.231 128.666 181.669C117.746 170.106 111.965 155.332 111.965 136.062C111.965 134.777 111.965 133.492 111.965 132.208Z" fill="#2F9DC4"/>
<path d="M231.442 159.827C231.442 163.681 230.157 168.178 228.23 172.674C225.661 177.171 222.449 181.667 217.31 185.521C212.171 189.375 206.39 192.587 199.324 195.156C192.258 197.726 183.908 199.01 174.273 199.01C155.002 199.01 139.586 193.229 128.666 181.667C117.746 170.105 111.965 155.331 111.965 136.06C111.965 123.213 114.534 111.651 119.673 101.373C124.812 91.7379 131.877 84.0297 141.513 78.2486C151.148 73.1098 162.068 69.8979 175.557 69.8979C183.908 69.8979 190.974 71.1827 198.04 73.7521C205.105 76.3215 210.887 79.5332 215.383 82.745C219.88 85.9567 223.734 90.4532 226.303 94.9497C228.872 99.4461 230.157 103.3 230.157 107.154C230.157 111.008 228.872 114.22 225.661 116.79C223.091 119.359 219.237 120.644 215.383 120.644C212.814 120.644 210.887 120.001 208.96 118.717C207.033 117.432 205.105 115.505 203.178 112.293C199.324 106.512 195.47 102.015 190.974 98.8037C186.477 95.592 181.338 94.3073 174.915 94.3073C165.28 94.3073 158.214 98.1614 152.433 105.227C146.652 112.293 144.082 122.571 144.082 135.418C144.082 141.199 144.724 146.98 146.009 151.476C147.294 155.973 149.863 160.469 152.433 164.323C155.002 167.535 158.856 170.747 162.71 172.032C166.564 173.959 171.061 174.601 175.557 174.601C181.981 174.601 187.12 173.316 191.616 170.105C196.113 166.893 199.967 162.396 203.821 156.615C205.748 152.761 207.675 150.192 210.244 148.265C212.171 146.338 215.383 145.053 218.595 145.053C222.449 145.053 225.661 146.338 228.23 149.549C230.799 152.761 231.442 156.615 231.442 159.827Z" stroke="#0A2933" stroke-width="6.42351" stroke-linejoin="round"/>
<path d="M125.455 110.366C128.666 95.592 138.944 85.3144 156.287 79.5332" stroke="white" stroke-width="6.42351" stroke-linecap="round" stroke-linejoin="round" stroke-dasharray="6.42 6.42"/>
<path d="M284.225 190.174H267.86L265.002 199.428H252.243L270.412 149.891H281.639L299.943 199.428H287.117L284.225 190.174ZM270.718 180.953H281.367L276.025 163.772L270.718 180.953ZM344.956 199.428H333.082L315.526 168.603V199.428H303.584V149.891H315.526L333.048 180.715V149.891H344.956V199.428ZM378.06 186.261C378.06 184.514 377.436 183.153 376.188 182.178C374.964 181.203 372.798 180.194 369.69 179.15C366.583 178.107 364.042 177.097 362.069 176.122C355.65 172.969 352.441 168.637 352.441 163.125C352.441 160.381 353.234 157.965 354.822 155.879C356.433 153.769 358.701 152.136 361.627 150.979C364.553 149.8 367.842 149.21 371.493 149.21C375.054 149.21 378.241 149.845 381.054 151.115C383.889 152.386 386.089 154.2 387.654 156.559C389.219 158.895 390.002 161.572 390.002 164.588H378.094C378.094 162.57 377.47 161.005 376.223 159.893C374.998 158.782 373.331 158.226 371.221 158.226C369.089 158.226 367.399 158.702 366.152 159.655C364.927 160.585 364.315 161.776 364.315 163.227C364.315 164.498 364.995 165.654 366.356 166.698C367.717 167.718 370.11 168.785 373.535 169.896C376.96 170.985 379.772 172.164 381.972 173.434C387.325 176.519 390.002 180.772 390.002 186.193C390.002 190.525 388.369 193.927 385.102 196.4C381.836 198.872 377.357 200.108 371.663 200.108C367.649 200.108 364.008 199.394 360.742 197.965C357.499 196.513 355.049 194.54 353.393 192.045C351.76 189.527 350.944 186.635 350.944 183.369H362.92C362.92 186.023 363.6 187.985 364.961 189.255C366.345 190.502 368.579 191.126 371.663 191.126C373.637 191.126 375.19 190.707 376.325 189.867C377.481 189.005 378.06 187.803 378.06 186.261ZM408.85 199.428H396.942V149.891H408.85V199.428Z" fill="#24242E"/>
<g opacity="0.5">
<path d="M850.516 126.006C850.13 128.133 848.97 130.485 847.456 132.772C845.588 134.996 843.365 137.155 840.144 138.766C836.922 140.377 833.411 141.57 829.255 142.279C825.099 142.988 820.363 142.86 815.047 141.894C804.416 139.963 796.49 135.228 791.624 127.754C786.758 120.281 785.049 111.55 786.981 100.918C788.268 93.8305 790.845 87.709 794.71 82.5537C798.511 77.7529 803.182 74.2084 809.077 71.9846C814.908 70.1152 821.255 69.4377 828.697 70.7898C833.305 71.6268 837.074 73.0438 840.715 75.1696C844.356 77.2955 847.223 79.6469 849.382 81.8695C851.541 84.0922 853.217 86.9593 854.184 89.6976C855.15 92.4358 855.473 94.691 855.087 96.8173C854.7 98.9437 853.67 100.587 851.64 101.683C849.965 102.843 847.71 103.165 845.584 102.779C844.166 102.521 843.167 101.974 842.233 101.072C841.298 100.17 840.428 98.9135 839.687 96.9484C838.14 93.3725 836.464 90.5054 834.306 88.2828C832.147 86.0601 829.44 84.8363 825.896 84.1925C820.58 83.2267 816.296 84.6448 812.398 87.9637C808.5 91.2826 806.053 96.6953 804.765 103.783C804.185 106.973 803.96 110.227 804.218 112.836C804.477 115.446 805.443 118.184 806.475 120.568C807.57 122.598 809.375 124.756 811.372 125.851C813.306 127.3 815.722 128.105 818.203 128.556C821.747 129.2 824.711 129.006 827.513 127.685C830.316 126.364 832.893 124.269 835.599 121.466C837.048 119.533 838.369 118.308 839.98 117.503C841.236 116.633 843.137 116.246 844.909 116.568C847.035 116.954 848.678 117.985 849.774 120.014C850.87 122.044 850.838 124.235 850.516 126.006Z" fill="#24242E"/>
<path d="M787.367 98.793C785.983 108.426 787.756 116.802 792.042 123.438C796.907 130.912 804.833 135.647 815.465 137.578C820.427 138.48 825.163 138.608 829.673 137.963C833.829 137.253 837.695 136.125 840.562 134.45C843.783 132.838 846.006 130.679 847.874 128.456C848.84 127.167 849.871 125.524 850.483 124.171C850.709 124.944 850.58 125.653 850.516 126.007C850.129 128.134 848.97 130.486 847.456 132.773C845.588 134.997 843.365 137.155 840.144 138.767C836.922 140.378 833.411 141.571 829.255 142.28C825.099 142.989 820.363 142.861 815.047 141.895C804.415 139.964 796.489 135.229 791.623 127.755C786.758 120.282 785.049 111.551 786.98 100.919C787.109 100.211 787.238 99.5018 787.367 98.793Z" fill="#1D1D25"/>
<path d="M850.516 126.006C850.13 128.133 848.97 130.485 847.456 132.772C845.588 134.996 843.365 137.155 840.144 138.766C836.922 140.377 833.411 141.57 829.255 142.279C825.099 142.988 820.363 142.86 815.047 141.894C804.416 139.963 796.49 135.228 791.624 127.754C786.758 120.281 785.049 111.55 786.981 100.918C788.268 93.8305 790.845 87.709 794.71 82.5537C798.511 77.7529 803.182 74.2084 809.077 71.9846C814.908 70.1152 821.255 69.4377 828.697 70.7898C833.305 71.6268 837.074 73.0438 840.715 75.1696C844.356 77.2955 847.223 79.6469 849.382 81.8695C851.541 84.0922 853.217 86.9593 854.184 89.6976C855.15 92.4358 855.473 94.691 855.087 96.8173C854.7 98.9437 853.67 100.587 851.64 101.683C849.965 102.843 847.71 103.165 845.584 102.779C844.166 102.521 843.167 101.974 842.233 101.072C841.298 100.17 840.428 98.9135 839.687 96.9484C838.14 93.3725 836.464 90.5054 834.306 88.2828C832.147 86.0601 829.44 84.8363 825.896 84.1925C820.58 83.2267 816.296 84.6448 812.398 87.9637C808.5 91.2826 806.053 96.6953 804.765 103.783C804.185 106.973 803.96 110.227 804.218 112.836C804.477 115.446 805.443 118.184 806.475 120.568C807.57 122.598 809.375 124.756 811.372 125.851C813.306 127.3 815.722 128.105 818.203 128.556C821.747 129.2 824.711 129.006 827.513 127.685C830.316 126.364 832.893 124.269 835.599 121.466C837.048 119.533 838.369 118.308 839.98 117.503C841.236 116.633 843.137 116.246 844.909 116.568C847.035 116.954 848.678 117.985 849.774 120.014C850.87 122.044 850.838 124.235 850.516 126.006Z" stroke="#24242E" stroke-width="3.60196" stroke-linejoin="round"/>
<path d="M796.998 88.0949C800.251 80.2658 806.952 75.6256 817.1 74.1744" stroke="#363640" stroke-width="3.60196" stroke-linecap="round" stroke-linejoin="round" stroke-dasharray="3.6 3.6"/>
<path d="M876.675 147.598L867.646 145.958L865.142 150.777L858.103 149.499L873.092 123.989L879.286 125.115L884.42 154.28L877.343 152.994L876.675 147.598ZM870.147 141.158L876.023 142.225L874.798 132.21L870.147 141.158ZM909.254 158.791L902.703 157.601L896.107 138.835L893.017 155.842L886.428 154.645L891.394 127.314L897.982 128.511L904.56 147.274L907.649 130.267L914.219 131.461L909.254 158.791ZM928.838 154.845C929.013 153.882 928.805 153.068 928.214 152.405C927.636 151.744 926.542 150.97 924.933 150.083C923.323 149.196 922.022 148.384 921.031 147.649C917.806 145.266 916.47 142.554 917.022 139.513C917.297 137.999 917.977 136.746 919.062 135.754C920.162 134.751 921.577 134.077 923.308 133.733C925.04 133.375 926.914 133.379 928.928 133.745C930.893 134.102 932.588 134.772 934.012 135.755C935.449 136.74 936.481 137.961 937.108 139.42C937.737 140.866 937.901 142.421 937.598 144.085L931.029 142.891C931.231 141.778 931.044 140.852 930.467 140.114C929.902 139.378 929.038 138.904 927.875 138.692C926.698 138.479 925.718 138.572 924.935 138.973C924.166 139.363 923.708 139.959 923.563 140.759C923.435 141.46 923.695 142.167 924.341 142.879C924.99 143.578 926.203 144.406 927.981 145.363C929.762 146.307 931.195 147.239 932.282 148.161C934.926 150.399 935.976 153.014 935.433 156.005C934.999 158.395 933.757 160.108 931.707 161.145C929.657 162.181 927.062 162.414 923.921 161.844C921.706 161.441 919.769 160.682 918.11 159.567C916.466 158.441 915.312 157.106 914.649 155.564C914 154.011 913.84 152.334 914.167 150.532L920.774 151.732C920.508 153.196 920.687 154.347 921.311 155.184C921.949 156.011 923.119 156.579 924.821 156.888C925.91 157.086 926.809 157.01 927.519 156.661C928.243 156.301 928.683 155.696 928.838 154.845ZM944.505 165.196L937.936 164.002L942.901 136.672L949.471 137.865L944.505 165.196Z" fill="#24242E"/>
</g>
<g opacity="0.5">
<path d="M1058.72 140.379C1059.29 142.109 1059.38 144.317 1059.18 146.621C1058.69 149.019 1057.91 151.513 1056.18 154.003C1054.44 156.493 1052.32 158.789 1049.53 160.988C1046.74 163.186 1043.18 164.998 1038.85 166.423C1030.2 169.273 1022.43 168.958 1015.82 165.382C1009.2 161.807 1004.42 156.03 1001.57 147.38C999.674 141.613 999.117 136.043 999.904 130.669C1000.79 125.584 1002.82 121.079 1006.29 117.059C1009.85 113.327 1014.28 110.271 1020.34 108.276C1024.08 107.041 1027.45 106.573 1031 106.681C1034.55 106.789 1037.62 107.376 1040.11 108.153C1042.61 108.929 1045 110.378 1046.82 112.016C1048.64 113.655 1049.78 115.195 1050.35 116.925C1050.92 118.655 1050.82 120.287 1049.76 121.915C1048.99 123.448 1047.45 124.595 1045.72 125.165C1044.56 125.545 1043.6 125.542 1042.55 125.25C1041.49 124.958 1040.34 124.378 1039 123.222C1036.42 121.196 1034.02 119.748 1031.53 118.971C1029.04 118.195 1026.54 118.378 1023.66 119.328C1019.33 120.753 1016.73 123.528 1015.18 127.555C1013.63 131.581 1014 136.575 1015.9 142.342C1016.75 144.937 1017.89 147.437 1019.14 149.265C1020.38 151.094 1022.2 152.732 1023.92 154.082C1025.55 155.144 1027.75 156.016 1029.67 156.022C1031.69 156.317 1033.8 155.941 1035.82 155.276C1038.7 154.326 1040.82 152.989 1042.36 150.882C1043.91 148.776 1044.97 146.187 1045.85 143.022C1046.14 141.007 1046.63 139.569 1047.5 138.324C1048.08 137.174 1049.33 136.122 1050.77 135.647C1052.5 135.077 1054.13 135.179 1055.76 136.24C1057.39 137.302 1058.25 138.937 1058.72 140.379Z" fill="#24242E"/>
<path d="M1001 145.651C1003.86 153.341 1008.54 158.829 1014.39 162.018C1021 165.593 1028.77 165.908 1037.42 163.058C1041.46 161.728 1045.02 159.917 1048.1 157.623C1050.89 155.425 1053.3 153.033 1054.75 150.638C1056.49 148.148 1057.26 145.655 1057.75 143.256C1057.95 141.913 1058.05 140.281 1057.96 139.033C1058.44 139.515 1058.63 140.091 1058.72 140.38C1059.29 142.11 1059.38 144.318 1059.18 146.622C1058.69 149.02 1057.91 151.513 1056.18 154.003C1054.44 156.493 1052.32 158.79 1049.53 160.988C1046.74 163.187 1043.18 164.998 1038.85 166.423C1030.2 169.273 1022.43 168.958 1015.82 165.383C1009.2 161.808 1004.42 156.031 1001.57 147.381C1001.38 146.804 1001.19 146.227 1001 145.651Z" fill="#1D1D25"/>
<path d="M1058.72 140.379C1059.29 142.109 1059.38 144.317 1059.18 146.621C1058.69 149.019 1057.91 151.513 1056.18 154.003C1054.44 156.493 1052.32 158.789 1049.53 160.988C1046.74 163.186 1043.18 164.998 1038.85 166.423C1030.2 169.273 1022.43 168.958 1015.82 165.382C1009.2 161.807 1004.42 156.03 1001.57 147.38C999.674 141.613 999.117 136.043 999.904 130.669C1000.79 125.584 1002.82 121.079 1006.29 117.059C1009.85 113.327 1014.28 110.271 1020.34 108.276C1024.08 107.041 1027.45 106.573 1031 106.681C1034.55 106.789 1037.62 107.376 1040.11 108.153C1042.61 108.929 1045 110.378 1046.82 112.016C1048.64 113.655 1049.78 115.195 1050.35 116.925C1050.92 118.655 1050.82 120.287 1049.76 121.915C1048.99 123.448 1047.45 124.595 1045.72 125.165C1044.56 125.545 1043.6 125.542 1042.55 125.25C1041.49 124.958 1040.34 124.378 1039 123.222C1036.42 121.196 1034.02 119.748 1031.53 118.971C1029.04 118.195 1026.54 118.378 1023.66 119.328C1019.33 120.753 1016.73 123.528 1015.18 127.555C1013.63 131.581 1014 136.575 1015.9 142.342C1016.75 144.937 1017.89 147.437 1019.14 149.265C1020.38 151.094 1022.2 152.732 1023.92 154.082C1025.55 155.144 1027.75 156.016 1029.67 156.022C1031.69 156.317 1033.8 155.941 1035.82 155.276C1038.7 154.326 1040.82 152.989 1042.36 150.882C1043.91 148.776 1044.97 146.187 1045.85 143.022C1046.14 141.007 1046.63 139.569 1047.5 138.324C1048.08 137.174 1049.33 136.122 1050.77 135.647C1052.5 135.077 1054.13 135.179 1055.76 136.24C1057.39 137.302 1058.25 138.937 1058.72 140.379Z" stroke="#24242E" stroke-width="3.03589" stroke-linejoin="round"/>
<path d="M1003.83 133.851C1003.09 126.744 1006.18 120.611 1013.11 115.451" stroke="#363640" stroke-width="3.03589" stroke-linecap="round" stroke-linejoin="round" stroke-dasharray="3.04 3.04"/>
<path d="M1086.99 146.46L1079.64 148.881L1079.73 153.457L1074 155.344L1074.83 130.421L1079.87 128.76L1095.41 148.29L1089.66 150.187L1086.99 146.46ZM1079.56 144.319L1084.34 142.744L1079.4 135.822L1079.56 144.319ZM1115.62 141.633L1110.29 143.389L1097.85 132.148L1102.41 145.985L1097.05 147.751L1089.72 125.515L1095.08 123.749L1107.51 134.994L1102.95 121.157L1108.29 119.396L1115.62 141.633ZM1128.53 130.827C1128.27 130.043 1127.79 129.524 1127.09 129.271C1126.39 129.014 1125.27 128.881 1123.72 128.872C1122.17 128.864 1120.88 128.786 1119.85 128.64C1116.51 128.174 1114.43 126.704 1113.61 124.23C1113.2 122.998 1113.2 121.797 1113.61 120.625C1114.02 119.44 1114.8 118.371 1115.94 117.419C1117.08 116.457 1118.47 115.706 1120.11 115.166C1121.7 114.639 1123.23 114.453 1124.68 114.607C1126.14 114.758 1127.4 115.247 1128.45 116.075C1129.49 116.892 1130.24 117.978 1130.69 119.332L1125.34 121.093C1125.04 120.187 1124.53 119.577 1123.81 119.262C1123.09 118.944 1122.26 118.942 1121.32 119.253C1120.36 119.569 1119.67 120.033 1119.25 120.645C1118.84 121.243 1118.74 121.868 1118.96 122.52C1119.14 123.09 1119.62 123.509 1120.39 123.776C1121.15 124.033 1122.38 124.157 1124.08 124.15C1125.78 124.132 1127.22 124.245 1128.39 124.49C1131.25 125.083 1133.08 126.597 1133.88 129.03C1134.52 130.975 1134.29 132.743 1133.19 134.336C1132.09 135.929 1130.26 137.146 1127.71 137.988C1125.91 138.582 1124.17 138.8 1122.49 138.641C1120.82 138.47 1119.43 137.946 1118.32 137.071C1117.21 136.182 1116.42 135.005 1115.93 133.539L1121.31 131.768C1121.7 132.959 1122.3 133.739 1123.1 134.108C1123.9 134.463 1125 134.413 1126.38 133.957C1127.27 133.665 1127.9 133.247 1128.29 132.702C1128.68 132.144 1128.76 131.519 1128.53 130.827ZM1144.3 132.183L1138.96 133.944L1131.63 111.708L1136.98 109.947L1144.3 132.183Z" fill="#24242E"/>
</g>
<g opacity="0.5">
<path d="M1010.5 30.8363C1010.08 32.2097 1009.14 33.6731 1007.96 35.067C1006.56 36.3914 1004.93 37.6463 1002.68 38.4639C1000.44 39.2814 998.028 39.8006 995.232 39.9519C992.436 40.1032 989.321 39.6577 985.887 38.6154C979.02 36.5309 974.152 32.8031 971.511 27.5015C968.87 22.2 968.408 16.3098 970.493 9.44258C971.883 4.86446 974.049 1.02208 976.992 -2.08454C979.866 -4.96223 983.217 -6.94477 987.276 -7.96266C991.266 -8.75164 995.505 -8.71495 1000.31 -7.25577C1003.29 -6.35247 1005.67 -5.1303 1007.91 -3.45034C1010.15 -1.77038 1011.86 -0.000512348 1013.11 1.63041C1014.37 3.26134 1015.26 5.28061 1015.69 7.1609C1016.11 9.04116 1016.16 10.5536 1015.74 11.927C1015.32 13.3004 1014.52 14.306 1013.09 14.8742C1011.9 15.5119 1010.39 15.5528 1009.01 15.1359C1008.1 14.8579 1007.48 14.4206 1006.93 13.7543C1006.39 13.0881 1005.91 12.1929 1005.57 10.8399C1004.82 8.36283 1003.93 6.34357 1002.68 4.71265C1001.42 3.08172 999.731 2.06806 997.442 1.37321C994.009 0.330935 991.074 0.940019 988.249 2.83263C985.425 4.72523 983.397 8.10979 982.008 12.6879C981.382 14.7481 980.986 16.8777 980.957 18.619C980.929 20.3603 981.358 22.2406 981.857 23.892C982.425 25.3145 983.451 26.8759 984.685 27.7506C985.85 28.8543 987.383 29.5696 988.986 30.056C991.275 30.7508 993.245 30.8489 995.195 30.1907C997.144 29.5326 999.004 28.3472 1001 26.7039C1002.11 25.5389 1003.07 24.8318 1004.2 24.423C1005.09 23.9447 1006.37 23.8343 1007.52 24.1817C1008.89 24.5987 1009.9 25.4039 1010.47 26.8264C1011.03 28.2488 1010.85 29.6918 1010.5 30.8363Z" fill="#24242E"/>
<path d="M970.91 8.06982C969.262 14.3198 969.794 19.9811 972.116 24.6859C974.756 29.9874 979.625 33.7152 986.492 35.7998C989.697 36.7725 992.812 37.218 995.836 37.1362C998.632 36.9849 1001.27 36.5352 1003.29 35.6482C1005.54 34.8306 1007.17 33.5757 1008.57 32.2513C1009.3 31.4747 1010.11 30.4691 1010.62 29.623C1010.71 30.1503 1010.57 30.6081 1010.5 30.837C1010.08 32.2104 1009.14 33.6738 1007.96 35.0677C1006.56 36.3921 1004.93 37.647 1002.68 38.4646C1000.43 39.2821 998.027 39.8013 995.231 39.9526C992.436 40.1039 989.321 39.6584 985.887 38.6161C979.02 36.5316 974.152 32.8038 971.511 27.5022C968.87 22.2007 968.408 16.3105 970.493 9.44326C970.632 8.98545 970.771 8.52764 970.91 8.06982Z" fill="#1D1D25"/>
<path d="M1010.5 30.8363C1010.08 32.2097 1009.14 33.6731 1007.96 35.067C1006.56 36.3914 1004.93 37.6463 1002.68 38.4639C1000.44 39.2814 998.028 39.8006 995.232 39.9519C992.436 40.1032 989.321 39.6577 985.887 38.6154C979.02 36.5309 974.152 32.8031 971.511 27.5015C968.87 22.2 968.408 16.3098 970.493 9.44258C971.883 4.86446 974.049 1.02208 976.992 -2.08454C979.866 -4.96223 983.217 -6.94477 987.276 -7.96266C991.266 -8.75164 995.505 -8.71495 1000.31 -7.25577C1003.29 -6.35247 1005.67 -5.1303 1007.91 -3.45034C1010.15 -1.77038 1011.86 -0.000512348 1013.11 1.63041C1014.37 3.26134 1015.26 5.28061 1015.69 7.1609C1016.11 9.04116 1016.16 10.5536 1015.74 11.927C1015.32 13.3004 1014.52 14.306 1013.09 14.8742C1011.9 15.5119 1010.39 15.5528 1009.01 15.1359C1008.1 14.8579 1007.48 14.4206 1006.93 13.7543C1006.39 13.0881 1005.91 12.1929 1005.57 10.8399C1004.82 8.36283 1003.93 6.34357 1002.68 4.71265C1001.42 3.08172 999.731 2.06806 997.442 1.37321C994.009 0.330935 991.074 0.940019 988.249 2.83263C985.425 4.72523 983.397 8.10979 982.008 12.6879C981.382 14.7481 980.986 16.8777 980.957 18.619C980.929 20.3603 981.358 22.2406 981.857 23.892C982.425 25.3145 983.451 26.8759 984.685 27.7506C985.85 28.8543 987.383 29.5696 988.986 30.056C991.275 30.7508 993.245 30.8489 995.195 30.1907C997.144 29.5326 999.004 28.3472 1001 26.7039C1002.11 25.5389 1003.07 24.8318 1004.2 24.423C1005.09 23.9447 1006.37 23.8343 1007.52 24.1817C1008.89 24.5987 1009.9 25.4039 1010.47 26.8264C1011.03 28.2488 1010.85 29.6918 1010.5 30.8363Z" stroke="#24242E" stroke-width="2.3922" stroke-linejoin="round"/>
<path d="M978.08 1.74556C980.822 -3.17184 985.597 -5.72261 992.403 -5.90667" stroke="#363640" stroke-width="2.3922" stroke-linecap="round" stroke-linejoin="round" stroke-dasharray="2.39 2.39"/>
<path d="M1026.09 47.1621L1020.25 45.3918L1018.23 48.3805L1013.69 47.0004L1025.52 31.3127L1029.52 32.5272L1030.69 52.1602L1026.12 50.7727L1026.09 47.1621ZM1022.27 42.4153L1026.06 43.5673L1026.02 36.8667L1022.27 42.4153ZM1046.73 57.0293L1042.5 55.7448L1039.57 42.8612L1036.24 53.8458L1031.98 52.554L1037.34 34.901L1041.6 36.1928L1044.51 49.0728L1047.84 38.0882L1052.09 39.3763L1046.73 57.0293ZM1059.95 55.9182C1060.14 55.2958 1060.06 54.7433 1059.72 54.2608C1059.39 53.7808 1058.73 53.1868 1057.73 52.4788C1056.74 51.7709 1055.94 51.1364 1055.35 50.5754C1053.4 48.7575 1052.72 46.8665 1053.32 44.9024C1053.62 43.9243 1054.16 43.1494 1054.95 42.5775C1055.76 42 1056.74 41.6634 1057.91 41.5677C1059.08 41.4639 1060.31 41.6095 1061.62 42.0045C1062.88 42.3897 1063.95 42.9608 1064.82 43.7177C1065.69 44.477 1066.28 45.3616 1066.58 46.3715C1066.88 47.3734 1066.87 48.4118 1066.55 49.4868L1062.3 48.1987C1062.52 47.4793 1062.47 46.8541 1062.15 46.3231C1061.83 45.7946 1061.29 45.4162 1060.54 45.188C1059.78 44.9574 1059.13 44.9443 1058.58 45.1489C1058.05 45.3478 1057.7 45.7059 1057.54 46.2232C1057.4 46.6758 1057.52 47.1616 1057.89 47.6807C1058.27 48.1916 1059.01 48.8304 1060.11 49.5969C1061.21 50.3554 1062.08 51.0799 1062.73 51.7705C1064.3 53.4489 1064.8 55.2539 1064.21 57.1857C1063.74 58.7295 1062.79 59.7653 1061.36 60.293C1059.93 60.8207 1058.2 60.7767 1056.17 60.1608C1054.74 59.7266 1053.52 59.0782 1052.51 58.2156C1051.51 57.3475 1050.85 56.3793 1050.53 55.311C1050.22 54.2372 1050.24 53.1183 1050.6 51.9544L1054.87 53.2498C1054.58 54.1955 1054.61 54.9683 1054.96 55.5682C1055.31 56.1624 1056.04 56.6263 1057.14 56.96C1057.85 57.1735 1058.44 57.192 1058.94 57.0156C1059.44 56.8336 1059.78 56.4678 1059.95 55.9182ZM1069.5 63.941L1065.25 62.6528L1070.61 44.9999L1074.85 46.288L1069.5 63.941Z" fill="#24242E"/>
</g>
<g opacity="0.5">
<path d="M1158.72 300.379C1159.29 302.109 1159.38 304.317 1159.18 306.621C1158.69 309.019 1157.91 311.513 1156.18 314.003C1154.44 316.493 1152.32 318.789 1149.53 320.988C1146.74 323.186 1143.18 324.998 1138.85 326.423C1130.2 329.273 1122.43 328.958 1115.82 325.382C1109.2 321.807 1104.42 316.03 1101.57 307.38C1099.67 301.613 1099.12 296.043 1099.9 290.669C1100.79 285.584 1102.82 281.079 1106.29 277.059C1109.85 273.327 1114.28 270.271 1120.34 268.276C1124.08 267.041 1127.45 266.573 1131 266.681C1134.55 266.789 1137.62 267.376 1140.11 268.153C1142.61 268.929 1145 270.378 1146.82 272.016C1148.64 273.655 1149.78 275.195 1150.35 276.925C1150.92 278.655 1150.82 280.287 1149.76 281.915C1148.99 283.448 1147.45 284.595 1145.72 285.165C1144.56 285.545 1143.6 285.542 1142.55 285.25C1141.49 284.958 1140.34 284.378 1139 283.222C1136.42 281.196 1134.02 279.748 1131.53 278.971C1129.04 278.195 1126.54 278.378 1123.66 279.328C1119.33 280.753 1116.73 283.528 1115.18 287.555C1113.63 291.581 1114 296.575 1115.9 302.342C1116.75 304.937 1117.89 307.437 1119.14 309.265C1120.38 311.094 1122.2 312.732 1123.92 314.082C1125.55 315.144 1127.75 316.016 1129.67 316.022C1131.69 316.317 1133.8 315.941 1135.82 315.276C1138.7 314.326 1140.82 312.989 1142.36 310.882C1143.91 308.776 1144.97 306.187 1145.85 303.022C1146.14 301.007 1146.63 299.569 1147.5 298.324C1148.08 297.174 1149.33 296.122 1150.77 295.647C1152.5 295.077 1154.13 295.179 1155.76 296.24C1157.39 297.302 1158.25 298.937 1158.72 300.379Z" fill="#24242E"/>
<path d="M1158.72 300.379C1159.29 302.109 1159.38 304.317 1159.18 306.621C1158.69 309.019 1157.91 311.513 1156.18 314.003C1154.44 316.493 1152.32 318.789 1149.53 320.988C1146.74 323.186 1143.18 324.998 1138.85 326.423C1130.2 329.273 1122.43 328.958 1115.82 325.382C1109.2 321.807 1104.42 316.03 1101.57 307.38C1099.67 301.613 1099.12 296.043 1099.9 290.669C1100.79 285.584 1102.82 281.079 1106.29 277.059C1109.85 273.327 1114.28 270.271 1120.34 268.276C1124.08 267.041 1127.45 266.573 1131 266.681C1134.55 266.789 1137.62 267.376 1140.11 268.153C1142.61 268.929 1145 270.378 1146.82 272.016C1148.64 273.655 1149.78 275.195 1150.35 276.925C1150.92 278.655 1150.82 280.287 1149.76 281.915C1148.99 283.448 1147.45 284.595 1145.72 285.165C1144.56 285.545 1143.6 285.542 1142.55 285.25C1141.49 284.958 1140.34 284.378 1139 283.222C1136.42 281.196 1134.02 279.748 1131.53 278.971C1129.04 278.195 1126.54 278.378 1123.66 279.328C1119.33 280.753 1116.73 283.528 1115.18 287.555C1113.63 291.581 1114 296.575 1115.9 302.342C1116.75 304.937 1117.89 307.437 1119.14 309.265C1120.38 311.094 1122.2 312.732 1123.92 314.082C1125.55 315.144 1127.75 316.016 1129.67 316.022C1131.69 316.317 1133.8 315.941 1135.82 315.276C1138.7 314.326 1140.82 312.989 1142.36 310.882C1143.91 308.776 1144.97 306.187 1145.85 303.022C1146.14 301.007 1146.63 299.569 1147.5 298.324C1148.08 297.174 1149.33 296.122 1150.77 295.647C1152.5 295.077 1154.13 295.179 1155.76 296.24C1157.39 297.302 1158.25 298.937 1158.72 300.379Z" stroke="#24242E" stroke-width="3.03589" stroke-linejoin="round"/>
</g>
<g opacity="0.5">
<path d="M959.23 271.694C960.019 274.087 960.141 277.141 959.864 280.326C959.189 283.643 958.114 287.091 955.713 290.535C953.311 293.979 950.379 297.155 946.518 300.195C942.657 303.236 937.735 305.741 931.754 307.712C919.791 311.653 909.038 311.217 899.894 306.273C890.75 301.329 884.139 293.339 880.198 281.376C877.57 273.401 876.8 265.697 877.888 258.266C879.108 251.233 881.918 245.003 886.717 239.443C891.647 234.282 897.77 230.055 906.144 227.296C911.328 225.588 915.977 224.94 920.889 225.09C925.801 225.24 930.047 226.052 933.495 227.126C936.944 228.2 940.256 230.203 942.771 232.469C945.285 234.735 946.871 236.865 947.66 239.257C948.448 241.65 948.307 243.907 946.839 246.159C945.769 248.279 943.639 249.865 941.247 250.653C939.652 251.179 938.324 251.174 936.865 250.771C935.406 250.367 933.815 249.565 931.962 247.966C928.387 245.165 925.075 243.162 921.627 242.088C918.178 241.013 914.725 241.267 910.738 242.581C904.756 244.551 901.158 248.389 899.014 253.958C896.87 259.527 897.377 266.433 900.005 274.408C901.187 277.997 902.769 281.455 904.486 283.984C906.203 286.512 908.718 288.778 911.101 290.645C913.353 292.113 916.403 293.319 919.058 293.328C921.845 293.736 924.768 293.215 927.559 292.296C931.547 290.982 934.474 289.133 936.609 286.22C938.743 283.306 940.216 279.727 941.426 275.349C941.834 272.563 942.505 270.573 943.706 268.852C944.508 267.261 946.239 265.807 948.233 265.15C950.626 264.361 952.882 264.502 955.134 265.97C957.386 267.439 958.573 269.7 959.23 271.694Z" fill="#24242E"/>
<path d="M879.41 278.984C883.356 289.62 889.835 297.21 897.919 301.62C907.063 306.564 917.816 307 929.779 303.059C935.362 301.219 940.283 298.714 944.543 295.542C948.403 292.502 951.734 289.194 953.737 285.882C956.139 282.438 957.213 278.99 957.889 275.673C958.161 273.815 958.302 271.559 958.175 269.832C958.836 270.498 959.099 271.296 959.23 271.695C960.019 274.087 960.141 277.142 959.864 280.327C959.189 283.644 958.115 287.092 955.713 290.536C953.311 293.98 950.379 297.156 946.518 300.196C942.657 303.236 937.736 305.742 931.754 307.713C919.791 311.654 909.038 311.218 899.894 306.274C890.75 301.329 884.139 293.34 880.198 281.377C879.935 280.579 879.672 279.782 879.41 278.984Z" fill="#1D1D25"/>
<path d="M959.23 271.694C960.019 274.087 960.141 277.141 959.864 280.326C959.189 283.643 958.114 287.091 955.713 290.535C953.311 293.979 950.379 297.155 946.518 300.195C942.657 303.236 937.735 305.741 931.754 307.712C919.791 311.653 909.038 311.217 899.894 306.273C890.75 301.329 884.139 293.339 880.198 281.376C877.57 273.401 876.8 265.697 877.888 258.266C879.108 251.233 881.918 245.003 886.717 239.443C891.647 234.282 897.77 230.055 906.144 227.296C911.328 225.588 915.977 224.94 920.889 225.09C925.801 225.24 930.047 226.052 933.495 227.126C936.944 228.2 940.256 230.203 942.771 232.469C945.285 234.735 946.871 236.865 947.66 239.257C948.448 241.65 948.307 243.907 946.839 246.159C945.769 248.279 943.639 249.865 941.247 250.653C939.652 251.179 938.324 251.174 936.865 250.771C935.406 250.367 933.815 249.565 931.962 247.966C928.387 245.165 925.075 243.162 921.627 242.088C918.178 241.013 914.725 241.267 910.738 242.581C904.756 244.551 901.158 248.389 899.014 253.958C896.87 259.527 897.377 266.433 900.005 274.408C901.187 277.997 902.769 281.455 904.486 283.984C906.203 286.512 908.718 288.778 911.101 290.645C913.353 292.113 916.403 293.319 919.058 293.328C921.845 293.736 924.768 293.215 927.559 292.296C931.547 290.982 934.474 289.133 936.609 286.22C938.743 283.306 940.216 279.727 941.426 275.349C941.834 272.563 942.505 270.573 943.706 268.852C944.508 267.261 946.239 265.807 948.233 265.15C950.626 264.361 952.882 264.502 955.134 265.97C957.386 267.439 958.573 269.7 959.23 271.694Z" stroke="#24242E" stroke-width="4.19856" stroke-linejoin="round"/>
<path d="M883.317 262.666C882.289 252.838 886.567 244.355 896.152 237.219" stroke="#363640" stroke-width="4.19856" stroke-linecap="round" stroke-linejoin="round" stroke-dasharray="4.2 4.2"/>
<path d="M998.053 279.276L987.893 282.623L988.012 288.953L980.091 291.562L981.238 257.093L988.208 254.797L1009.7 281.806L1001.74 284.429L998.053 279.276ZM987.782 276.315L994.393 274.136L987.562 264.563L987.782 276.315ZM1037.65 272.6L1030.28 275.028L1013.07 259.483L1019.38 278.619L1011.96 281.061L1001.83 250.309L1009.25 247.866L1026.43 263.418L1020.12 244.282L1027.52 241.847L1037.65 272.6ZM1055.51 257.655C1055.15 256.57 1054.48 255.853 1053.51 255.503C1052.55 255.148 1051 254.964 1048.85 254.952C1046.71 254.94 1044.93 254.833 1043.5 254.631C1038.87 253.987 1036 251.954 1034.87 248.532C1034.31 246.828 1034.31 245.166 1034.87 243.546C1035.43 241.907 1036.51 240.43 1038.09 239.113C1039.66 237.782 1041.58 236.743 1043.85 235.997C1046.06 235.268 1048.17 235.011 1050.18 235.224C1052.2 235.433 1053.93 236.109 1055.39 237.253C1056.84 238.384 1057.87 239.885 1058.49 241.758L1051.09 244.193C1050.68 242.94 1049.97 242.096 1048.97 241.661C1047.98 241.222 1046.84 241.218 1045.53 241.649C1044.2 242.085 1043.25 242.727 1042.67 243.573C1042.1 244.401 1041.96 245.266 1042.26 246.167C1042.52 246.955 1043.18 247.534 1044.24 247.904C1045.29 248.259 1047 248.431 1049.35 248.421C1051.7 248.396 1053.69 248.553 1055.31 248.892C1059.26 249.712 1061.8 251.805 1062.9 255.17C1063.79 257.859 1063.47 260.306 1061.95 262.508C1060.43 264.711 1057.9 266.395 1054.37 267.559C1051.87 268.38 1049.47 268.682 1047.15 268.462C1044.84 268.225 1042.91 267.501 1041.38 266.29C1039.85 265.061 1038.75 263.433 1038.08 261.405L1045.51 258.956C1046.06 260.603 1046.88 261.682 1047.99 262.192C1049.1 262.684 1050.61 262.614 1052.53 261.983C1053.75 261.58 1054.63 261.001 1055.17 260.248C1055.71 259.477 1055.82 258.612 1055.51 257.655ZM1077.31 259.531L1069.92 261.967L1059.79 231.214L1067.18 228.778L1077.31 259.531Z" fill="#24242E"/>
</g>
<g opacity="0.8">
<path d="M1239.66 61.988C1238.45 64.1957 1236.3 66.367 1233.78 68.336C1230.89 70.1029 1227.64 71.6675 1223.48 72.2576C1219.32 72.8477 1215 72.8676 1210.14 72.1151C1205.29 71.3627 1200.1 69.4699 1194.58 66.4368C1183.54 60.3706 1176.53 52.206 1173.92 42.1453C1171.3 32.0845 1172.64 21.8016 1178.71 10.763C1182.75 3.40385 1187.86 -2.41052 1194.04 -6.68015C1200.02 -10.5818 1206.49 -12.773 1213.83 -13.0515C1220.97 -12.962 1228.23 -11.3643 1235.96 -7.11792C1240.74 -4.48922 1244.39 -1.52899 1247.63 2.16712C1250.86 5.86323 1253.17 9.52284 1254.73 12.7781C1256.29 16.0333 1257.09 19.8223 1257.14 23.2068C1257.2 26.5913 1256.72 29.2034 1255.51 31.4112C1254.3 33.6189 1252.55 35.0543 1249.9 35.5151C1247.62 36.178 1245.01 35.7007 1242.8 34.4875C1241.33 33.6786 1240.43 32.7041 1239.73 31.3615C1239.03 30.019 1238.53 28.3085 1238.44 25.8621C1238.05 21.3372 1237.26 17.5483 1235.69 14.2931C1234.13 11.0378 1231.59 8.68431 1227.91 6.66223C1222.39 3.62912 1217.13 3.61253 1211.59 5.84018C1206.06 8.06782 1201.35 13.1463 1197.31 20.5054C1195.49 23.817 1194.03 27.3308 1193.35 30.3109C1192.67 33.291 1192.73 36.6755 1192.99 39.6921C1193.45 42.3407 1194.65 45.3937 1196.45 47.3429C1198.05 49.66 1200.43 51.4434 1203 52.8589C1206.68 54.8809 1210.03 55.7627 1213.62 55.3384C1217.2 54.9141 1220.83 53.5516 1224.85 51.4532C1227.17 49.8521 1229.08 48.9869 1231.16 48.6919C1232.87 48.1947 1235.12 48.4698 1236.96 49.4808C1239.16 50.6941 1240.6 52.441 1241.06 55.0896C1241.52 57.7382 1240.67 60.1482 1239.66 61.988Z" fill="#24242E"/>
<path d="M1179.92 8.55615C1174.83 18.6932 1173.69 28.6081 1175.97 37.5285C1178.59 47.5892 1185.6 55.7538 1196.64 61.82C1201.79 64.6509 1206.98 66.5437 1212.2 67.4984C1217.06 68.2508 1221.75 68.4331 1225.54 67.6409C1229.7 67.0508 1232.95 65.4861 1235.84 63.7193C1237.38 62.6519 1239.13 61.2165 1240.31 59.9469C1240.27 60.885 1239.87 61.6209 1239.66 61.9889C1238.45 64.1966 1236.3 66.3679 1233.78 68.337C1230.89 70.1038 1227.64 71.6685 1223.48 72.2585C1219.32 72.8486 1215 72.8685 1210.14 72.1161C1205.29 71.3636 1200.1 69.4708 1194.58 66.4377C1183.54 60.3715 1176.53 52.2069 1173.92 42.1462C1171.3 32.0854 1172.64 21.8026 1178.71 10.7639C1179.11 10.028 1179.51 9.29206 1179.92 8.55615Z" fill="#1D1D25"/>
<path d="M1239.66 61.988C1238.45 64.1957 1236.3 66.367 1233.78 68.336C1230.89 70.1029 1227.64 71.6675 1223.48 72.2576C1219.32 72.8477 1215 72.8676 1210.14 72.1151C1205.29 71.3627 1200.1 69.4699 1194.58 66.4368C1183.54 60.3706 1176.53 52.206 1173.92 42.1453C1171.3 32.0845 1172.64 21.8016 1178.71 10.763C1182.75 3.40385 1187.86 -2.41052 1194.04 -6.68015C1200.02 -10.5818 1206.49 -12.773 1213.83 -13.0515C1220.97 -12.962 1228.23 -11.3643 1235.96 -7.11792C1240.74 -4.48922 1244.39 -1.52899 1247.63 2.16712C1250.86 5.86323 1253.17 9.52284 1254.73 12.7781C1256.29 16.0333 1257.09 19.8223 1257.14 23.2068C1257.2 26.5913 1256.72 29.2034 1255.51 31.4112C1254.3 33.6189 1252.55 35.0543 1249.9 35.5151C1247.62 36.178 1245.01 35.7007 1242.8 34.4875C1241.33 33.6786 1240.43 32.7041 1239.73 31.3615C1239.03 30.019 1238.53 28.3085 1238.44 25.8621C1238.05 21.3372 1237.26 17.5483 1235.69 14.2931C1234.13 11.0378 1231.59 8.68431 1227.91 6.66223C1222.39 3.62912 1217.13 3.61253 1211.59 5.84018C1206.06 8.06782 1201.35 13.1463 1197.31 20.5054C1195.49 23.817 1194.03 27.3308 1193.35 30.3109C1192.67 33.291 1192.73 36.6755 1192.99 39.6921C1193.45 42.3407 1194.65 45.3937 1196.45 47.3429C1198.05 49.66 1200.43 51.4434 1203 52.8589C1206.68 54.8809 1210.03 55.7627 1213.62 55.3384C1217.2 54.9141 1220.83 53.5516 1224.85 51.4532C1227.17 49.8521 1229.08 48.9869 1231.16 48.6919C1232.87 48.1947 1235.12 48.4698 1236.96 49.4808C1239.16 50.6941 1240.6 52.441 1241.06 55.0896C1241.52 57.7382 1240.67 60.1482 1239.66 61.988Z" stroke="#24242E" stroke-width="4.19856" stroke-linejoin="round"/>
<path d="M1194.52 0.291272C1201.01 -7.16064 1210.13 -9.81264 1221.89 -7.66464" stroke="#363640" stroke-width="4.19856" stroke-linecap="round" stroke-linejoin="round" stroke-dasharray="4.2 4.2"/>
<path d="M1260.58 95.5613L1251.21 90.4097L1246.66 94.8111L1239.35 90.7948L1265.35 68.1378L1271.78 71.6721L1266.67 105.81L1259.32 101.773L1260.58 95.5613ZM1255.75 86.0278L1261.85 89.3801L1264.19 77.8566L1255.75 86.0278ZM1292.46 119.98L1285.65 116.242L1285.3 93.0585L1275.6 110.716L1268.76 106.956L1284.35 78.5802L1291.19 82.3395L1291.53 105.512L1301.23 87.8552L1308.05 91.6037L1292.46 119.98ZM1315.56 122.859C1316.11 121.858 1316.18 120.882 1315.78 119.931C1315.38 118.987 1314.46 117.727 1313.01 116.151C1311.56 114.575 1310.42 113.197 1309.6 112.017C1306.91 108.19 1306.44 104.699 1308.17 101.541C1309.03 99.9691 1310.25 98.8353 1311.82 98.1398C1313.4 97.4384 1315.22 97.2169 1317.26 97.4754C1319.3 97.7208 1321.37 98.4183 1323.47 99.5679C1325.51 100.689 1327.13 102.056 1328.34 103.669C1329.57 105.289 1330.26 107.021 1330.41 108.865C1330.57 110.696 1330.18 112.475 1329.23 114.203L1322.41 110.455C1323.04 109.298 1323.18 108.206 1322.81 107.176C1322.46 106.154 1321.68 105.311 1320.47 104.647C1319.25 103.976 1318.13 103.717 1317.12 103.87C1316.12 104.017 1315.4 104.506 1314.94 105.338C1314.54 106.065 1314.57 106.942 1315.02 107.968C1315.48 108.981 1316.51 110.345 1318.12 112.06C1319.74 113.762 1320.98 115.323 1321.84 116.743C1323.94 120.195 1324.13 123.474 1322.43 126.579C1321.06 129.061 1319.06 130.495 1316.41 130.883C1313.76 131.271 1310.8 130.569 1307.54 128.777C1305.24 127.513 1303.38 125.958 1301.96 124.111C1300.56 122.259 1299.78 120.357 1299.61 118.407C1299.47 116.451 1299.91 114.537 1300.94 112.666L1307.8 116.436C1306.97 117.956 1306.74 119.294 1307.12 120.45C1307.52 121.6 1308.6 122.661 1310.37 123.632C1311.5 124.253 1312.52 124.502 1313.43 124.378C1314.37 124.249 1315.08 123.742 1315.56 122.859ZM1329.06 140.094L1322.24 136.345L1337.83 107.969L1344.65 111.717L1329.06 140.094Z" fill="#24242E"/>
</g>
<g opacity="0.8">
<path d="M1232.6 210.242C1232.95 211.858 1232.82 213.86 1232.42 215.92C1231.75 218.04 1230.82 220.218 1229.02 222.302C1227.21 224.387 1225.08 226.261 1222.36 227.982C1219.63 229.704 1216.25 231.005 1212.21 231.884C1204.13 233.643 1197.14 232.626 1191.51 228.776C1185.88 224.926 1182.1 219.261 1180.34 211.184C1179.17 205.798 1179.19 200.717 1180.41 195.94C1181.68 191.432 1183.94 187.557 1187.45 184.254C1191.02 181.221 1195.31 178.878 1200.96 177.647C1204.46 176.885 1207.54 176.778 1210.74 177.21C1213.93 177.643 1216.65 178.461 1218.83 179.397C1221.01 180.333 1223.03 181.866 1224.52 183.516C1226.01 185.167 1226.9 186.665 1227.25 188.281C1227.6 189.896 1227.36 191.36 1226.24 192.73C1225.4 194.041 1223.9 194.931 1222.29 195.283C1221.21 195.518 1220.34 195.424 1219.42 195.062C1218.49 194.699 1217.51 194.067 1216.41 192.897C1214.27 190.825 1212.24 189.292 1210.06 188.356C1207.89 187.42 1205.61 187.351 1202.92 187.937C1198.88 188.816 1196.27 191.077 1194.49 194.566C1192.72 198.055 1192.58 202.598 1193.75 207.983C1194.28 210.406 1195.07 212.771 1196.02 214.539C1196.97 216.306 1198.46 217.956 1199.89 219.338C1201.26 220.449 1203.17 221.444 1204.9 221.631C1206.69 222.087 1208.63 221.946 1210.52 221.535C1213.21 220.949 1215.25 219.942 1216.84 218.185C1218.43 216.428 1219.64 214.192 1220.72 211.417C1221.18 209.625 1221.75 208.372 1222.65 207.33C1223.29 206.347 1224.52 205.515 1225.86 205.222C1227.48 204.87 1228.94 205.115 1230.31 206.227C1231.68 207.339 1232.3 208.896 1232.6 210.242Z" fill="#24242E"/>
<path d="M1179.99 209.569C1181.85 216.78 1185.56 222.176 1190.53 225.605C1196.17 229.455 1203.16 230.471 1211.23 228.712C1215 227.892 1218.39 226.591 1221.38 224.811C1224.11 223.089 1226.51 221.156 1228.04 219.13C1229.85 217.046 1230.78 214.868 1231.45 212.749C1231.75 211.554 1232 210.091 1232.03 208.955C1232.42 209.435 1232.54 209.974 1232.6 210.243C1232.95 211.858 1232.82 213.86 1232.42 215.921C1231.75 218.04 1230.82 220.218 1229.02 222.303C1227.21 224.387 1225.08 226.261 1222.36 227.983C1219.63 229.705 1216.25 231.005 1212.21 231.885C1204.13 233.643 1197.14 232.627 1191.51 228.777C1185.88 224.927 1182.1 219.262 1180.34 211.184C1180.23 210.646 1180.11 210.107 1179.99 209.569Z" fill="#1D1D25"/>
<path d="M1232.6 210.242C1232.95 211.858 1232.82 213.86 1232.42 215.92C1231.75 218.04 1230.82 220.218 1229.02 222.302C1227.21 224.387 1225.08 226.261 1222.36 227.982C1219.63 229.704 1216.25 231.005 1212.21 231.884C1204.13 233.643 1197.14 232.626 1191.51 228.776C1185.88 224.926 1182.1 219.261 1180.34 211.184C1179.17 205.798 1179.19 200.717 1180.41 195.94C1181.68 191.432 1183.94 187.557 1187.45 184.254C1191.02 181.221 1195.31 178.878 1200.96 177.647C1204.46 176.885 1207.54 176.778 1210.74 177.21C1213.93 177.643 1216.65 178.461 1218.83 179.397C1221.01 180.333 1223.03 181.866 1224.52 183.516C1226.01 185.167 1226.9 186.665 1227.25 188.281C1227.6 189.896 1227.36 191.36 1226.24 192.73C1225.4 194.041 1223.9 194.931 1222.29 195.283C1221.21 195.518 1220.34 195.424 1219.42 195.062C1218.49 194.699 1217.51 194.067 1216.41 192.897C1214.27 190.825 1212.24 189.292 1210.06 188.356C1207.89 187.42 1205.61 187.351 1202.92 187.937C1198.88 188.816 1196.27 191.077 1194.49 194.566C1192.72 198.055 1192.58 202.598 1193.75 207.983C1194.28 210.406 1195.07 212.771 1196.02 214.539C1196.97 216.306 1198.46 217.956 1199.89 219.338C1201.26 220.449 1203.17 221.444 1204.9 221.631C1206.69 222.087 1208.63 221.946 1210.52 221.535C1213.21 220.949 1215.25 219.942 1216.84 218.185C1218.43 216.428 1219.64 214.192 1220.72 211.417C1221.18 209.625 1221.75 208.372 1222.65 207.33C1223.29 206.347 1224.52 205.515 1225.86 205.222C1227.48 204.87 1228.94 205.115 1230.31 206.227C1231.68 207.339 1232.3 208.896 1232.6 210.242Z" stroke="#24242E" stroke-width="2.75563" stroke-linejoin="round"/>
<path d="M1183.65 199.182C1183.65 192.696 1187.02 187.45 1193.76 183.444" stroke="#363640" stroke-width="2.75563" stroke-linecap="round" stroke-linejoin="round" stroke-dasharray="2.76 2.76"/>
<path d="M1257.51 218.258L1250.65 219.752L1250.3 223.892L1244.95 225.056L1248.05 202.633L1252.75 201.609L1264.95 220.703L1259.57 221.874L1257.51 218.258ZM1251.01 215.626L1255.48 214.654L1251.67 207.94L1251.01 215.626ZM1283.82 216.595L1278.84 217.679L1268.67 206.36L1271.48 219.281L1266.47 220.371L1261.95 199.606L1266.96 198.516L1277.12 209.838L1274.3 196.917L1279.29 195.83L1283.82 216.595ZM1296.49 208.055C1296.33 207.323 1295.95 206.809 1295.33 206.514C1294.73 206.217 1293.73 205.992 1292.33 205.838C1290.94 205.684 1289.78 205.493 1288.86 205.264C1285.88 204.528 1284.14 203.005 1283.64 200.695C1283.39 199.545 1283.5 198.46 1283.98 197.44C1284.46 196.409 1285.26 195.517 1286.38 194.765C1287.5 194.004 1288.83 193.457 1290.36 193.123C1291.85 192.798 1293.24 192.774 1294.54 193.049C1295.84 193.323 1296.93 193.883 1297.8 194.729C1298.67 195.565 1299.24 196.616 1299.52 197.88L1294.53 198.967C1294.34 198.121 1293.94 197.522 1293.31 197.17C1292.7 196.816 1291.95 196.735 1291.07 196.927C1290.17 197.122 1289.51 197.476 1289.07 197.989C1288.64 198.491 1288.49 199.046 1288.63 199.654C1288.74 200.187 1289.13 200.609 1289.8 200.923C1290.46 201.226 1291.56 201.455 1293.1 201.608C1294.64 201.752 1295.92 201.989 1296.96 202.321C1299.49 203.126 1301 204.664 1301.49 206.936C1301.89 208.752 1301.51 210.327 1300.37 211.662C1299.22 212.996 1297.46 213.923 1295.07 214.443C1293.39 214.809 1291.8 214.842 1290.3 214.541C1288.81 214.229 1287.6 213.625 1286.68 212.73C1285.76 211.824 1285.16 210.686 1284.86 209.317L1289.88 208.224C1290.12 209.337 1290.59 210.097 1291.27 210.505C1291.97 210.902 1292.96 210.959 1294.25 210.678C1295.08 210.498 1295.69 210.18 1296.09 209.725C1296.5 209.258 1296.63 208.701 1296.49 208.055ZM1310.6 210.764L1305.61 211.851L1301.09 191.086L1306.08 189.999L1310.6 210.764Z" fill="#24242E"/>
</g>
<path d="M1425.06 273.545C1424.87 276.057 1423.81 278.923 1422.32 281.757C1420.42 284.558 1418.11 287.328 1414.56 289.582C1411.02 291.836 1407.09 293.64 1402.36 294.96C1397.63 296.28 1392.12 296.699 1385.84 296.216C1373.28 295.251 1363.52 290.711 1356.99 282.628C1350.45 274.546 1347.42 264.628 1348.39 252.069C1349.03 243.697 1351.29 236.291 1355.15 229.85C1358.98 223.828 1363.97 219.159 1370.54 215.874C1377.08 213.008 1384.36 211.462 1393.15 212.138C1398.59 212.556 1403.13 213.748 1407.61 215.776C1412.08 217.805 1415.69 220.188 1418.46 222.506C1421.23 224.824 1423.51 227.948 1424.96 231.007C1426.41 234.066 1427.06 236.642 1426.86 239.154C1426.67 241.666 1425.67 243.694 1423.45 245.208C1421.65 246.754 1419.07 247.398 1416.56 247.205C1414.88 247.076 1413.66 246.561 1412.47 245.627C1411.28 244.693 1410.12 243.341 1409.02 241.151C1406.8 237.19 1404.52 234.067 1401.75 231.748C1398.98 229.43 1395.69 228.335 1391.51 228.013C1385.23 227.531 1380.43 229.688 1376.31 234.003C1372.19 238.319 1370 244.888 1369.35 253.26C1369.06 257.028 1369.19 260.827 1369.8 263.822C1370.42 266.817 1371.86 269.876 1373.35 272.516C1374.86 274.738 1377.21 277.025 1379.66 278.055C1382.07 279.504 1384.97 280.148 1387.9 280.373C1392.09 280.695 1395.5 280.115 1398.59 278.248C1401.68 276.38 1404.42 273.643 1407.22 270.068C1408.67 267.653 1410.06 266.075 1411.83 264.948C1413.18 263.789 1415.34 263.112 1417.43 263.273C1419.94 263.466 1421.97 264.464 1423.48 266.686C1425 268.908 1425.22 271.452 1425.06 273.545Z" fill="#1F1F26"/>
<path d="M1348.58 249.559C1348.13 260.894 1351.19 270.393 1356.96 277.574C1363.49 285.656 1373.25 290.196 1385.81 291.162C1391.67 291.612 1397.18 291.194 1402.33 289.905C1407.06 288.585 1411.41 286.814 1414.53 284.527C1418.07 282.273 1420.39 279.504 1422.29 276.702C1423.26 275.092 1424.26 273.063 1424.8 271.421C1425.16 272.29 1425.09 273.128 1425.06 273.546C1424.87 276.058 1423.81 278.924 1422.32 281.758C1420.42 284.559 1418.11 287.329 1414.56 289.583C1411.02 291.837 1407.09 293.641 1402.36 294.961C1397.63 296.281 1392.12 296.7 1385.84 296.217C1373.28 295.252 1363.52 290.712 1356.99 282.629C1350.45 274.547 1347.42 264.629 1348.39 252.07C1348.45 251.233 1348.52 250.396 1348.58 249.559Z" fill="#282832"/>
<path d="M1425.06 273.545C1424.87 276.057 1423.81 278.923 1422.32 281.757C1420.42 284.558 1418.11 287.328 1414.56 289.582C1411.02 291.836 1407.09 293.64 1402.36 294.96C1397.63 296.28 1392.12 296.699 1385.84 296.216C1373.28 295.251 1363.52 290.711 1356.99 282.628C1350.45 274.546 1347.42 264.628 1348.39 252.069C1349.03 243.697 1351.29 236.291 1355.15 229.85C1358.98 223.828 1363.97 219.159 1370.54 215.874C1377.08 213.008 1384.36 211.462 1393.15 212.138C1398.59 212.556 1403.13 213.748 1407.61 215.776C1412.08 217.805 1415.69 220.188 1418.46 222.506C1421.23 224.824 1423.51 227.948 1424.96 231.007C1426.41 234.066 1427.06 236.642 1426.86 239.154C1426.67 241.666 1425.67 243.694 1423.45 245.208C1421.65 246.754 1419.07 247.398 1416.56 247.205C1414.88 247.076 1413.66 246.561 1412.47 245.627C1411.28 244.693 1410.12 243.341 1409.02 241.151C1406.8 237.19 1404.52 234.067 1401.75 231.748C1398.98 229.43 1395.69 228.335 1391.51 228.013C1385.23 227.531 1380.43 229.688 1376.31 234.003C1372.19 238.319 1370 244.888 1369.35 253.26C1369.06 257.028 1369.19 260.827 1369.8 263.822C1370.42 266.817 1371.86 269.876 1373.35 272.516C1374.86 274.738 1377.21 277.025 1379.66 278.055C1382.07 279.504 1384.97 280.148 1387.9 280.373C1392.09 280.695 1395.5 280.115 1398.59 278.248C1401.68 276.38 1404.42 273.643 1407.22 270.068C1408.67 267.653 1410.06 266.075 1411.83 264.948C1413.18 263.789 1415.34 263.112 1417.43 263.273C1419.94 263.466 1421.97 264.464 1423.48 266.686C1425 268.908 1425.22 271.452 1425.06 273.545Z" stroke="#1F1F26" stroke-width="4.19856" stroke-linejoin="round"/>
<path d="M1358.47 236C1361.3 226.533 1368.51 220.35 1380.11 217.451" stroke="#2B2B35" stroke-width="4.19856" stroke-linecap="round" stroke-linejoin="round" stroke-dasharray="4.2 4.2"/>
<path d="M1457.98 295.483L1447.31 294.663L1444.99 300.55L1436.67 299.911L1450.99 268.538L1458.31 269.101L1467.76 302.301L1459.4 301.659L1457.98 295.483ZM1449.64 288.797L1456.58 289.331L1453.96 277.866L1449.64 288.797ZM1497.09 304.557L1489.35 303.962L1479.46 282.994L1477.91 303.082L1470.13 302.484L1472.61 270.2L1480.39 270.799L1490.27 291.765L1491.81 271.677L1499.57 272.273L1497.09 304.557ZM1519.33 297.635C1519.41 296.497 1519.07 295.578 1518.31 294.88C1517.56 294.183 1516.2 293.417 1514.23 292.581C1512.25 291.746 1510.65 290.961 1509.41 290.226C1505.39 287.85 1503.51 284.866 1503.79 281.274C1503.93 279.485 1504.56 277.95 1505.7 276.67C1506.86 275.376 1508.42 274.425 1510.38 273.818C1512.35 273.196 1514.52 272.977 1516.9 273.16C1519.22 273.338 1521.27 273.912 1523.04 274.88C1524.82 275.85 1526.16 277.143 1527.07 278.759C1527.97 280.36 1528.34 282.143 1528.19 284.109L1520.43 283.512C1520.53 282.197 1520.21 281.146 1519.45 280.359C1518.71 279.573 1517.65 279.127 1516.27 279.022C1514.88 278.915 1513.76 279.141 1512.9 279.699C1512.05 280.244 1511.59 280.989 1511.52 281.935C1511.46 282.763 1511.84 283.551 1512.68 284.299C1513.51 285.032 1515.02 285.847 1517.2 286.743C1519.37 287.624 1521.15 288.534 1522.52 289.472C1525.85 291.75 1527.38 294.656 1527.11 298.189C1526.89 301.012 1525.66 303.148 1523.41 304.595C1521.15 306.043 1518.17 306.624 1514.46 306.339C1511.85 306.137 1509.51 305.489 1507.45 304.394C1505.41 303.286 1503.91 301.877 1502.96 300.168C1502.02 298.446 1501.63 296.52 1501.8 294.391L1509.6 294.991C1509.47 296.721 1509.82 298.034 1510.64 298.93C1511.48 299.812 1512.9 300.33 1514.91 300.485C1516.2 300.584 1517.23 300.388 1518.01 299.898C1518.81 299.394 1519.25 298.64 1519.33 297.635ZM1538.73 307.759L1530.97 307.162L1533.45 274.878L1541.21 275.475L1538.73 307.759Z" fill="#1F1F26"/>
<path d="M1439.06 74.5452C1438.87 77.0569 1437.81 79.9229 1436.32 82.7567C1434.42 85.5583 1432.11 88.3277 1428.56 90.5819C1425.02 92.8361 1421.09 94.6396 1416.36 95.96C1411.63 97.2804 1406.12 97.6992 1399.84 97.2164C1387.28 96.2508 1377.52 91.7107 1370.99 83.6283C1364.45 75.5459 1361.42 65.628 1362.39 53.0694C1363.03 44.6969 1365.29 37.2905 1369.15 30.8501C1372.98 24.8283 1377.97 20.1589 1384.54 16.8742C1391.08 14.008 1398.36 12.462 1407.15 13.138C1412.59 13.5564 1417.13 14.7478 1421.61 16.7763C1426.08 18.8049 1429.69 21.1876 1432.46 23.506C1435.23 25.8244 1437.51 28.948 1438.96 32.0071C1440.41 35.0661 1441.06 37.6422 1440.86 40.1539C1440.67 42.6657 1439.67 44.6944 1437.45 46.2079C1435.65 47.7537 1433.07 48.3978 1430.56 48.2047C1428.88 48.0759 1427.66 47.5607 1426.47 46.6269C1425.28 45.6931 1424.12 44.3407 1423.02 42.151C1420.8 38.1903 1418.52 35.0668 1415.75 32.7484C1412.98 30.43 1409.69 29.3353 1405.51 29.0134C1399.23 28.5306 1394.43 30.6882 1390.31 35.0034C1386.19 39.3185 1384 45.8877 1383.35 54.2601C1383.06 58.0277 1383.19 61.8275 1383.8 64.8222C1384.42 67.8169 1385.86 70.876 1387.35 73.5165C1388.86 75.7383 1391.21 78.0246 1393.66 79.0549C1396.07 80.5039 1398.97 81.1479 1401.9 81.3732C1406.09 81.695 1409.5 81.1153 1412.59 79.2475C1415.68 77.3797 1418.42 74.6425 1421.22 71.068C1422.67 68.6529 1424.06 67.075 1425.83 65.9478C1427.18 64.7885 1429.34 64.1122 1431.43 64.2732C1433.94 64.4663 1435.97 65.4645 1437.48 67.6863C1439 69.9082 1439.22 72.4521 1439.06 74.5452Z" fill="#1F1F26"/>
<path d="M1362.58 50.5586C1362.13 61.8935 1365.19 71.3929 1370.96 78.5736C1377.49 86.656 1387.25 91.1961 1399.81 92.1617C1405.67 92.6123 1411.18 92.1935 1416.33 90.9053C1421.06 89.5849 1425.41 87.8137 1428.53 85.5272C1432.07 83.273 1434.39 80.5036 1436.29 77.702C1437.26 76.0919 1438.26 74.0632 1438.8 72.4209C1439.16 73.2903 1439.09 74.1276 1439.06 74.5462C1438.87 77.0579 1437.81 79.9239 1436.32 82.7577C1434.42 85.5593 1432.11 88.3287 1428.56 90.5829C1425.02 92.8371 1421.09 94.6405 1416.36 95.961C1411.63 97.2814 1406.12 97.7002 1399.84 97.2174C1387.28 96.2517 1377.52 91.7116 1370.99 83.6293C1364.45 75.5469 1361.42 65.6289 1362.39 53.0703C1362.45 52.2331 1362.52 51.3958 1362.58 50.5586Z" fill="#282832"/>
<path d="M1439.06 74.5452C1438.87 77.0569 1437.81 79.9229 1436.32 82.7567C1434.42 85.5583 1432.11 88.3277 1428.56 90.5819C1425.02 92.8361 1421.09 94.6396 1416.36 95.96C1411.63 97.2804 1406.12 97.6992 1399.84 97.2164C1387.28 96.2508 1377.52 91.7107 1370.99 83.6283C1364.45 75.5459 1361.42 65.628 1362.39 53.0694C1363.03 44.6969 1365.29 37.2905 1369.15 30.8501C1372.98 24.8283 1377.97 20.1589 1384.54 16.8742C1391.08 14.008 1398.36 12.462 1407.15 13.138C1412.59 13.5564 1417.13 14.7478 1421.61 16.7763C1426.08 18.8049 1429.69 21.1876 1432.46 23.506C1435.23 25.8244 1437.51 28.948 1438.96 32.0071C1440.41 35.0661 1441.06 37.6422 1440.86 40.1539C1440.67 42.6657 1439.67 44.6944 1437.45 46.2079C1435.65 47.7537 1433.07 48.3978 1430.56 48.2047C1428.88 48.0759 1427.66 47.5607 1426.47 46.6269C1425.28 45.6931 1424.12 44.3407 1423.02 42.151C1420.8 38.1903 1418.52 35.0668 1415.75 32.7484C1412.98 30.43 1409.69 29.3353 1405.51 29.0134C1399.23 28.5306 1394.43 30.6882 1390.31 35.0034C1386.19 39.3185 1384 45.8877 1383.35 54.2601C1383.06 58.0277 1383.19 61.8275 1383.8 64.8222C1384.42 67.8169 1385.86 70.876 1387.35 73.5165C1388.86 75.7383 1391.21 78.0246 1393.66 79.0549C1396.07 80.5039 1398.97 81.1479 1401.9 81.3732C1406.09 81.695 1409.5 81.1153 1412.59 79.2475C1415.68 77.3797 1418.42 74.6425 1421.22 71.068C1422.67 68.6529 1424.06 67.075 1425.83 65.9478C1427.18 64.7885 1429.34 64.1122 1431.43 64.2732C1433.94 64.4663 1435.97 65.4645 1437.48 67.6863C1439 69.9082 1439.22 72.4521 1439.06 74.5452Z" stroke="#1F1F26" stroke-width="4.19856" stroke-linejoin="round"/>
<path d="M1372.47 37.0003C1375.3 27.533 1382.51 21.35 1394.11 18.4515" stroke="#2B2B35" stroke-width="4.19856" stroke-linecap="round" stroke-linejoin="round" stroke-dasharray="4.2 4.2"/>
<path d="M1471.98 96.4827L1461.31 95.6626L1458.99 101.55L1450.67 100.911L1464.99 69.538L1472.31 70.1006L1481.76 103.301L1473.4 102.659L1471.98 96.4827ZM1463.64 89.797L1470.58 90.3306L1467.96 78.8658L1463.64 89.797ZM1511.09 105.557L1503.35 104.962L1493.46 83.9936L1491.91 104.082L1484.13 103.484L1486.61 71.2002L1494.39 71.7986L1504.27 92.7651L1505.81 72.6766L1513.57 73.2733L1511.09 105.557ZM1533.33 98.6348C1533.41 97.4966 1533.07 96.5784 1532.31 95.8803C1531.56 95.1833 1530.2 94.417 1528.23 93.5813C1526.25 92.7456 1524.65 91.9605 1523.41 91.226C1519.39 88.8497 1517.51 85.8656 1517.79 82.2736C1517.93 80.485 1518.56 78.9505 1519.7 77.6701C1520.86 76.3761 1522.42 75.4255 1524.38 74.8182C1526.35 74.1962 1528.52 73.9767 1530.9 74.1597C1533.22 74.3381 1535.27 74.9117 1537.04 75.8804C1538.82 76.8502 1540.16 78.143 1541.07 79.7588C1541.97 81.3597 1542.34 83.1432 1542.19 85.1092L1534.43 84.5125C1534.53 83.1969 1534.21 82.1457 1533.45 81.3589C1532.71 80.5732 1531.65 80.1275 1530.27 80.0218C1528.88 79.9149 1527.76 80.1407 1526.9 80.699C1526.05 81.2437 1525.59 81.9891 1525.52 82.9351C1525.46 83.7629 1525.84 84.5508 1526.68 85.299C1527.51 86.0324 1529.02 86.847 1531.2 87.743C1533.37 88.6241 1535.15 89.5337 1536.52 90.4717C1539.85 92.7503 1541.38 95.656 1541.11 99.1888C1540.89 102.012 1539.66 104.148 1537.41 105.595C1535.15 107.043 1532.17 107.624 1528.46 107.339C1525.85 107.137 1523.51 106.489 1521.45 105.394C1519.41 104.286 1517.91 102.877 1516.96 101.168C1516.02 99.4455 1515.63 97.5199 1515.8 95.3913L1523.6 95.9914C1523.47 97.7209 1523.82 99.0336 1524.64 99.9296C1525.48 100.812 1526.9 101.33 1528.91 101.485C1530.2 101.584 1531.23 101.388 1532.01 100.898C1532.81 100.394 1533.25 99.6399 1533.33 98.6348ZM1552.73 108.759L1544.97 108.162L1547.45 75.8783L1555.21 76.475L1552.73 108.759Z" fill="#1F1F26"/>
<path d="M1482.95 191.019C1483.38 192.604 1483.35 194.597 1483.06 196.662C1482.51 198.799 1481.69 201.008 1480.01 203.168C1478.33 205.329 1476.31 207.297 1473.69 209.146C1471.08 210.994 1467.79 212.457 1463.82 213.537C1455.9 215.695 1448.91 215.044 1443.12 211.512C1437.34 207.98 1433.31 202.552 1431.15 194.627C1429.71 189.343 1429.47 184.3 1430.43 179.498C1431.47 174.96 1433.51 170.998 1436.82 167.542C1440.21 164.349 1444.34 161.805 1449.89 160.294C1453.32 159.359 1456.37 159.096 1459.57 159.361C1462.76 159.626 1465.5 160.299 1467.71 161.117C1469.92 161.934 1472.01 163.351 1473.57 164.913C1475.13 166.474 1476.09 167.915 1476.52 169.5C1476.95 171.085 1476.78 172.55 1475.75 173.967C1474.98 175.311 1473.54 176.271 1471.95 176.703C1470.9 176.991 1470.03 176.942 1469.1 176.63C1468.16 176.317 1467.15 175.741 1466 174.636C1463.77 172.69 1461.68 171.272 1459.47 170.455C1457.26 169.638 1455 169.685 1452.36 170.405C1448.4 171.484 1445.92 173.86 1444.34 177.414C1442.75 180.967 1442.85 185.482 1444.28 190.765C1444.93 193.143 1445.84 195.448 1446.88 197.154C1447.91 198.859 1449.47 200.42 1450.96 201.718C1452.37 202.751 1454.32 203.64 1456.05 203.736C1457.85 204.097 1459.77 203.858 1461.62 203.354C1464.26 202.635 1466.23 201.531 1467.72 199.706C1469.21 197.882 1470.29 195.601 1471.23 192.792C1471.59 190.991 1472.09 189.718 1472.93 188.638C1473.51 187.629 1474.69 186.741 1476.01 186.382C1477.59 185.95 1479.06 186.119 1480.47 187.152C1481.89 188.185 1482.59 189.698 1482.95 191.019Z" fill="#1F1F26"/>
<path d="M1430.72 193.042C1432.92 200.103 1436.88 205.267 1442 208.415C1447.78 211.947 1454.77 212.597 1462.7 210.439C1466.39 209.432 1469.69 207.968 1472.57 206.048C1475.19 204.2 1477.47 202.159 1478.88 200.071C1480.57 197.91 1481.38 195.701 1481.94 193.564C1482.18 192.364 1482.35 190.899 1482.32 189.77C1482.73 190.227 1482.87 190.755 1482.95 191.019C1483.38 192.604 1483.35 194.597 1483.06 196.662C1482.51 198.799 1481.69 201.008 1480.01 203.169C1478.33 205.33 1476.31 207.298 1473.69 209.146C1471.08 210.994 1467.79 212.458 1463.82 213.537C1455.9 215.696 1448.91 215.045 1443.12 211.513C1437.34 207.981 1433.31 202.552 1431.15 194.627C1431 194.099 1430.86 193.571 1430.72 193.042Z" fill="#282832"/>
<path d="M1482.95 191.019C1483.38 192.604 1483.35 194.597 1483.06 196.662C1482.51 198.799 1481.69 201.008 1480.01 203.168C1478.33 205.329 1476.31 207.297 1473.69 209.146C1471.08 210.994 1467.79 212.457 1463.82 213.537C1455.9 215.695 1448.91 215.044 1443.12 211.512C1437.34 207.98 1433.31 202.552 1431.15 194.627C1429.71 189.343 1429.47 184.3 1430.43 179.498C1431.47 174.96 1433.51 170.998 1436.82 167.542C1440.21 164.349 1444.34 161.805 1449.89 160.294C1453.32 159.359 1456.37 159.096 1459.57 159.361C1462.76 159.626 1465.5 160.299 1467.71 161.117C1469.92 161.934 1472.01 163.351 1473.57 164.913C1475.13 166.474 1476.09 167.915 1476.52 169.5C1476.95 171.085 1476.78 172.55 1475.75 173.967C1474.98 175.311 1473.54 176.271 1471.95 176.703C1470.9 176.991 1470.03 176.942 1469.1 176.63C1468.16 176.317 1467.15 175.741 1466 174.636C1463.77 172.69 1461.68 171.272 1459.47 170.455C1457.26 169.638 1455 169.685 1452.36 170.405C1448.4 171.484 1445.92 173.86 1444.34 177.414C1442.75 180.967 1442.85 185.482 1444.28 190.765C1444.93 193.143 1445.84 195.448 1446.88 197.154C1447.91 198.859 1449.47 200.42 1450.96 201.718C1452.37 202.751 1454.32 203.64 1456.05 203.736C1457.85 204.097 1459.77 203.858 1461.62 203.354C1464.26 202.635 1466.23 201.531 1467.72 199.706C1469.21 197.882 1470.29 195.601 1471.23 192.792C1471.59 190.991 1472.09 189.718 1472.93 188.638C1473.51 187.629 1474.69 186.741 1476.01 186.382C1477.59 185.95 1479.06 186.119 1480.47 187.152C1481.89 188.185 1482.59 189.698 1482.95 191.019Z" stroke="#1F1F26" stroke-width="2.73796" stroke-linejoin="round"/>
<path d="M1433.82 182.549C1433.48 176.113 1436.56 170.735 1443.04 166.415" stroke="#2B2B35" stroke-width="2.73796" stroke-linecap="round" stroke-linejoin="round" stroke-dasharray="2.74 2.74"/>
<path d="M1508.13 197.871L1501.4 199.704L1501.26 203.83L1496.01 205.259L1497.94 182.851L1502.55 181.594L1515.63 199.916L1510.36 201.353L1508.13 197.871ZM1501.54 195.592L1505.92 194.399L1501.8 187.931L1501.54 195.592ZM1534.14 194.874L1529.26 196.204L1518.59 185.494L1522.04 198.171L1517.13 199.508L1511.58 179.136L1516.49 177.798L1527.15 188.512L1523.7 175.835L1528.59 174.501L1534.14 194.874ZM1546.28 185.751C1546.09 185.033 1545.68 184.543 1545.06 184.282C1544.44 184.018 1543.44 183.845 1542.04 183.764C1540.65 183.683 1539.49 183.553 1538.57 183.373C1535.58 182.795 1533.77 181.373 1533.15 179.106C1532.85 177.977 1532.9 176.895 1533.32 175.859C1533.75 174.811 1534.5 173.885 1535.57 173.082C1536.64 172.269 1537.93 171.658 1539.43 171.249C1540.9 170.85 1542.28 170.755 1543.58 170.962C1544.89 171.167 1545.99 171.666 1546.9 172.461C1547.81 173.247 1548.43 174.26 1548.77 175.501L1543.87 176.834C1543.64 176.004 1543.21 175.43 1542.57 175.113C1541.94 174.793 1541.2 174.751 1540.33 174.988C1539.45 175.226 1538.81 175.612 1538.4 176.143C1538.01 176.663 1537.89 177.221 1538.05 177.818C1538.19 178.34 1538.6 178.74 1539.28 179.017C1539.95 179.284 1541.06 179.454 1542.59 179.528C1544.12 179.592 1545.41 179.762 1546.45 180.038C1549 180.707 1550.58 182.156 1551.19 184.386C1551.67 186.167 1551.38 187.749 1550.31 189.132C1549.25 190.515 1547.54 191.525 1545.2 192.162C1543.55 192.612 1541.97 192.726 1540.47 192.504C1538.97 192.271 1537.75 191.733 1536.79 190.893C1535.83 190.04 1535.17 188.942 1534.81 187.599L1539.73 186.258C1540.03 187.349 1540.53 188.08 1541.23 188.45C1541.94 188.808 1542.93 188.814 1544.2 188.469C1545.01 188.247 1545.6 187.901 1545.97 187.429C1546.35 186.945 1546.45 186.385 1546.28 185.751ZM1560.42 187.717L1555.52 189.051L1549.97 168.678L1554.87 167.345L1560.42 187.717Z" fill="#1F1F26"/>
</g>
<defs>
<clipPath id="clip0_539:10">
<rect width="1584" height="269" fill="white"/>
</clipPath>
</defs>
</svg>
