<svg width="230" height="230" viewBox="0 0 230 230" fill="none" xmlns="http://www.w3.org/2000/svg">
<path d="M184 143.031C184 147.343 182.563 152.375 180.406 157.406C177.531 162.437 173.937 167.468 168.187 171.781C162.437 176.093 155.969 179.687 148.063 182.562C140.156 185.437 130.813 186.875 120.031 186.875C98.4688 186.875 81.2187 180.406 69.0001 167.468C56.7813 154.531 50.3125 138 50.3125 116.437C50.3125 102.062 53.1875 89.1245 58.9375 77.6245C64.6875 66.8433 72.5938 58.2183 83.375 51.7496C94.1563 45.9996 106.375 42.4058 121.469 42.4058C130.812 42.4058 138.719 43.8433 146.625 46.7183C154.531 49.5933 161 53.187 166.031 56.7808C171.063 60.3745 175.375 65.4058 178.25 70.4371C181.125 75.4683 182.562 79.7808 182.562 84.0933C182.562 88.4058 181.125 91.9995 177.531 94.8745C174.656 97.7495 170.344 99.187 166.031 99.187C163.156 99.187 161 98.4683 158.844 97.0308C156.688 95.5933 154.531 93.437 152.375 89.8433C148.063 83.3745 143.75 78.3433 138.719 74.7495C133.687 71.1558 127.937 69.7183 120.75 69.7183C109.969 69.7183 102.063 74.0308 95.5938 81.937C89.125 89.8433 86.25 101.343 86.25 115.718C86.25 122.187 86.9688 128.656 88.4063 133.687C89.8438 138.718 92.7188 143.75 95.5938 148.062C98.4688 151.656 102.781 155.25 107.094 156.687C111.406 158.843 116.437 159.562 121.469 159.562C128.656 159.562 134.406 158.125 139.437 154.531C144.469 150.937 148.781 145.906 153.094 139.437C155.25 135.125 157.406 132.25 160.281 130.093C162.437 127.937 166.031 126.5 169.625 126.5C173.938 126.5 177.531 127.937 180.406 131.531C183.281 135.125 184 139.437 184 143.031Z" fill="#20BAF7"/>
<path d="M50.3125 112.125C51.0313 131.532 57.5 147.344 68.2812 158.844C80.5 171.782 97.75 178.25 119.313 178.25C129.375 178.25 138.719 176.813 147.344 173.938C155.25 171.063 162.437 167.469 167.469 163.157C173.219 158.844 176.812 153.813 179.688 148.782C181.125 145.907 182.562 142.313 183.281 139.438C184 140.875 184 142.313 184 143.032C184 147.344 182.563 152.375 180.406 157.407C177.531 162.438 173.937 167.469 168.187 171.782C162.437 176.094 155.969 179.688 148.063 182.563C140.156 185.438 130.813 186.875 120.031 186.875C98.4688 186.875 81.2187 180.407 69.0001 167.469C56.7813 154.532 50.3125 138 50.3125 116.438C50.3125 115 50.3125 113.563 50.3125 112.125Z" fill="#2F9DC4"/>
<path d="M184 143.031C184 147.343 182.563 152.375 180.406 157.406C177.531 162.437 173.937 167.468 168.187 171.781C162.437 176.093 155.969 179.687 148.063 182.562C140.156 185.437 130.813 186.875 120.031 186.875C98.4688 186.875 81.2187 180.406 69.0001 167.468C56.7813 154.531 50.3125 138 50.3125 116.437C50.3125 102.062 53.1875 89.1245 58.9375 77.6245C64.6875 66.8433 72.5938 58.2183 83.375 51.7496C94.1563 45.9996 106.375 42.4058 121.469 42.4058C130.812 42.4058 138.719 43.8433 146.625 46.7183C154.531 49.5933 161 53.187 166.031 56.7808C171.063 60.3745 175.375 65.4058 178.25 70.4371C181.125 75.4683 182.562 79.7808 182.562 84.0933C182.562 88.4058 181.125 91.9995 177.531 94.8745C174.656 97.7495 170.344 99.187 166.031 99.187C163.156 99.187 161 98.4683 158.844 97.0308C156.688 95.5933 154.531 93.437 152.375 89.8433C148.063 83.3745 143.75 78.3433 138.719 74.7495C133.687 71.1558 127.937 69.7183 120.75 69.7183C109.969 69.7183 102.063 74.0308 95.5938 81.937C89.125 89.8433 86.25 101.343 86.25 115.718C86.25 122.187 86.9688 128.656 88.4063 133.687C89.8438 138.718 92.7188 143.75 95.5938 148.062C98.4688 151.656 102.781 155.25 107.094 156.687C111.406 158.843 116.437 159.562 121.469 159.562C128.656 159.562 134.406 158.125 139.437 154.531C144.469 150.937 148.781 145.906 153.094 139.437C155.25 135.125 157.406 132.25 160.281 130.093C162.437 127.937 166.031 126.5 169.625 126.5C173.938 126.5 177.531 127.937 180.406 131.531C183.281 135.125 184 139.437 184 143.031Z" stroke="#0A2933" stroke-width="7.1875" stroke-linejoin="round"/>
<path d="M65.407 87.687C69.0007 71.1558 80.5007 59.6558 99.907 53.187" stroke="white" stroke-width="7.1875" stroke-linecap="round" stroke-linejoin="round" stroke-dasharray="7.19 7.19"/>
</svg>
