<svg width="238" height="92" viewBox="0 0 238 92" fill="none" xmlns="http://www.w3.org/2000/svg">
<path d="M225.618 3.44873H12.1462C7.34277 3.44873 3.44885 6.87564 3.44885 11.103V80.4334C3.44885 84.6607 7.34277 88.0876 12.1462 88.0876H225.618C230.421 88.0876 234.315 84.6607 234.315 80.4334V11.103C234.315 6.87564 230.421 3.44873 225.618 3.44873Z" fill="white" stroke="#28D634" stroke-width="6.89775"/>
<path d="M61.4396 37.979H50.6779V56.5131H44.6047V10.6972H59.7718C64.9324 10.6972 68.8972 11.872 71.6663 14.2215C74.4564 16.571 75.8514 19.9904 75.8514 24.4797C75.8514 27.3327 75.0752 29.8186 73.5229 31.9374C71.9915 34.0562 69.8517 35.64 67.1036 36.6889L77.8653 56.1355V56.5131H71.3831L61.4396 37.979ZM50.6779 33.0387H59.9606C62.9605 33.0387 65.3415 32.2625 67.1036 30.7102C68.8867 29.1578 69.7783 27.081 69.7783 24.4797C69.7783 21.6477 68.9287 19.4765 67.2295 17.9661C65.5512 16.4556 63.1178 15.6899 59.9291 15.669H50.6779V33.0387ZM113.486 15.669H98.7594V56.5131H92.7492V15.669H78.0541V10.6972H113.486V15.669ZM154.645 35.0841C154.645 39.5734 153.889 43.4962 152.379 46.8527C150.869 50.1882 148.729 52.737 145.96 54.4992C143.191 56.2613 139.96 57.1424 136.268 57.1424C132.66 57.1424 129.461 56.2613 126.671 54.4992C123.88 52.7161 121.709 50.1882 120.157 46.9156C118.625 43.6221 117.839 39.8146 117.797 35.4931V32.1891C117.797 27.7837 118.563 23.8923 120.094 20.5149C121.625 17.1374 123.786 14.5571 126.576 12.774C129.387 10.9699 132.597 10.0679 136.205 10.0679C139.876 10.0679 143.107 10.9594 145.897 12.7425C148.708 14.5047 150.869 17.0745 152.379 20.4519C153.889 23.8084 154.645 27.7208 154.645 32.1891V35.0841ZM148.634 32.1262C148.634 26.6929 147.544 22.5288 145.362 19.6338C143.18 16.7179 140.128 15.2599 136.205 15.2599C132.387 15.2599 129.377 16.7179 127.174 19.6338C124.992 22.5288 123.87 26.5565 123.807 31.7171V35.0841C123.807 40.3495 124.908 44.4927 127.111 47.5135C129.335 50.5134 132.387 52.0133 136.268 52.0133C140.17 52.0133 143.191 50.5973 145.33 47.7653C147.47 44.9122 148.572 40.832 148.634 35.5246V32.1262ZM177.206 36.091C172.025 34.6016 168.249 32.7765 165.878 30.6158C163.529 28.4341 162.354 25.7489 162.354 22.5602C162.354 18.952 163.791 15.9732 166.665 13.6236C169.56 11.2531 173.315 10.0679 177.93 10.0679C181.077 10.0679 183.877 10.6762 186.332 11.8929C188.807 13.1097 190.716 14.7879 192.059 16.9276C193.422 19.0674 194.104 21.4064 194.104 23.9448H188.031C188.031 21.1757 187.15 19.0045 185.388 17.4311C183.626 15.8368 181.14 15.0396 177.93 15.0396C174.951 15.0396 172.623 15.7004 170.945 17.022C169.287 18.3227 168.459 20.1373 168.459 22.4658C168.459 24.3329 169.245 25.9167 170.819 27.2173C172.413 28.497 175.109 29.6718 178.906 30.7416C182.724 31.8115 185.703 32.9968 187.842 34.2974C190.003 35.5771 191.597 37.077 192.625 38.7972C193.674 40.5174 194.199 42.5417 194.199 44.8703C194.199 48.5834 192.751 51.5623 189.856 53.8069C186.961 56.0306 183.091 57.1424 178.245 57.1424C175.098 57.1424 172.161 56.5445 169.434 55.3488C166.707 54.1321 164.599 52.4748 163.109 50.377C161.641 48.2792 160.907 45.8982 160.907 43.234H166.98C166.98 46.0031 167.997 48.1953 170.032 49.8106C172.088 51.4049 174.825 52.2021 178.245 52.2021C181.433 52.2021 183.877 51.5518 185.577 50.2511C187.276 48.9505 188.125 47.1779 188.125 44.9332C188.125 42.6886 187.339 40.9579 185.765 39.7412C184.192 38.5035 181.339 37.2868 177.206 36.091Z" fill="#65FF65"/>
<path d="M34.3389 72.6749H19.8979V75.3047H17.6987V72.6749H15.9916C14.2076 72.6749 12.8286 72.1981 11.8546 71.2446C10.8806 70.2911 10.3936 68.9429 10.3936 67.1999C10.3936 66.5438 10.4808 65.8927 10.6551 65.2468L12.9619 65.4006C12.8697 65.8825 12.8235 66.3951 12.8235 66.9385C12.8235 67.8612 13.0952 68.5738 13.6386 69.0762C14.1718 69.5786 14.9407 69.8298 15.9455 69.8298H17.6987V66.2772H19.8979V69.8298H34.3389V72.6749ZM20.2516 55.0812C20.1798 55.5118 20.144 55.9783 20.144 56.4807C20.144 58.3467 20.9386 59.6129 22.5277 60.2793H34.3389V63.1245H17.6987V60.3562L19.6211 60.3101C18.1344 59.3771 17.3911 58.0545 17.3911 56.3423C17.3911 55.7886 17.4629 55.3683 17.6064 55.0812H20.2516ZM34.6464 45.8538C34.6464 48.1094 33.9083 49.9446 32.4319 51.3595C30.9452 52.7743 28.9613 53.4818 26.4802 53.4818H25.9573C24.3066 53.4818 22.8353 53.1691 21.5435 52.5437C20.2414 51.908 19.2263 51.0263 18.4984 49.8985C17.7602 48.7604 17.3911 47.5301 17.3911 46.2075C17.3911 44.0441 18.1037 42.3627 19.5288 41.1631C20.9539 39.9636 22.9942 39.3638 25.6497 39.3638H26.8339V50.6367C28.4743 50.5956 29.802 50.1189 30.8171 49.2064C31.8218 48.2837 32.3242 47.1148 32.3242 45.7C32.3242 44.6952 32.1192 43.8442 31.709 43.147C31.2989 42.4498 30.7555 41.8398 30.0789 41.3169L31.4322 39.5791C33.575 40.9735 34.6464 43.065 34.6464 45.8538ZM19.7287 46.2075C19.7287 47.3558 20.1491 48.3195 20.9898 49.0987C21.8203 49.8779 22.9891 50.3598 24.4962 50.5444V42.2089H24.2809C22.8353 42.2909 21.7178 42.6805 20.9283 43.3777C20.1286 44.0749 19.7287 45.0182 19.7287 46.2075ZM34.6464 29.1521C34.6464 31.4077 33.9083 33.2429 32.4319 34.6578C30.9452 36.0727 28.9613 36.7801 26.4802 36.7801H25.9573C24.3066 36.7801 22.8353 36.4674 21.5435 35.842C20.2414 35.2063 19.2263 34.3246 18.4984 33.1968C17.7602 32.0587 17.3911 30.8284 17.3911 29.5058C17.3911 27.3425 18.1037 25.661 19.5288 24.4614C20.9539 23.2619 22.9942 22.6621 25.6497 22.6621H26.8339V33.935C28.4743 33.8939 29.802 33.4172 30.8171 32.5047C31.8218 31.582 32.3242 30.4131 32.3242 28.9983C32.3242 27.9935 32.1192 27.1425 31.709 26.4453C31.2989 25.7482 30.7555 25.1381 30.0789 24.6152L31.4322 22.8774C33.575 24.2718 34.6464 26.3633 34.6464 29.1521ZM19.7287 29.5058C19.7287 30.6541 20.1491 31.6178 20.9898 32.397C21.8203 33.1763 22.9891 33.6581 24.4962 33.8427V25.5072H24.2809C22.8353 25.5892 21.7178 25.9788 20.9283 26.676C20.1286 27.3732 19.7287 28.3165 19.7287 29.5058Z" fill="black"/>
<path d="M222.681 69.8257H44.9865V76.6126H222.681V69.8257Z" fill="black"/>
</svg>
