<svg width="231" height="230" viewBox="0 0 231 230" fill="none" xmlns="http://www.w3.org/2000/svg">
<g clip-path="url(#clip0_539:7)">
<path d="M114.477 0.0649414C56.0013 0.0649414 59.6525 25.4236 59.6525 25.4236L59.7174 51.6959H115.52V59.5835H37.5535C37.5535 59.5835 0.134766 55.3398 0.134766 114.342C0.134766 173.345 32.7948 171.253 32.7948 171.253H52.2861V143.873C52.2861 143.873 51.2354 111.213 84.4248 111.213H139.771C139.771 111.213 170.866 111.715 170.866 81.1602V30.6396C170.866 30.6396 175.589 0.0649414 114.477 0.0649414ZM83.7078 17.7325C85.0264 17.7314 86.3323 17.9902 87.5508 18.4943C88.7693 18.9984 89.8765 19.7378 90.8089 20.6702C91.7413 21.6026 92.4807 22.7098 92.9848 23.9283C93.4889 25.1468 93.7478 26.4527 93.7466 27.7714C93.7478 29.09 93.4889 30.396 92.9848 31.6145C92.4807 32.833 91.7413 33.9401 90.8089 34.8725C89.8765 35.805 88.7693 36.5444 87.5508 37.0485C86.3323 37.5525 85.0264 37.8114 83.7078 37.8102C82.3891 37.8114 81.0832 37.5525 79.8647 37.0485C78.6462 36.5444 77.539 35.805 76.6066 34.8725C75.6742 33.9401 74.9347 32.833 74.4307 31.6145C73.9266 30.396 73.6677 29.09 73.6689 27.7714C73.6677 26.4527 73.9266 25.1468 74.4307 23.9283C74.9347 22.7098 75.6742 21.6026 76.6066 20.6702C77.539 19.7378 78.6462 18.9984 79.8647 18.4943C81.0832 17.9902 82.3891 17.7314 83.7078 17.7325V17.7325Z" fill="url(#paint0_linear_539:7)"/>
<path d="M116.138 229.211C174.614 229.211 170.963 203.853 170.963 203.853L170.898 177.581H115.094V169.694H193.061C193.061 169.694 230.479 173.938 230.479 114.934C230.479 55.9313 197.819 58.0238 197.819 58.0238H178.328V85.4028C178.328 85.4028 179.379 118.063 146.189 118.063H90.8431C90.8431 118.063 59.748 117.56 59.748 148.116V198.638C59.748 198.638 55.0263 229.211 116.137 229.211H116.138ZM146.907 211.546C145.589 211.547 144.283 211.288 143.064 210.784C141.846 210.28 140.738 209.54 139.806 208.608C138.874 207.676 138.134 206.568 137.63 205.35C137.126 204.131 136.867 202.825 136.868 201.507C136.867 200.188 137.126 198.882 137.63 197.663C138.134 196.445 138.873 195.338 139.806 194.405C140.738 193.473 141.845 192.733 143.064 192.229C144.282 191.725 145.588 191.466 146.907 191.467C148.226 191.466 149.532 191.725 150.75 192.229C151.969 192.733 153.076 193.472 154.008 194.405C154.941 195.337 155.68 196.444 156.184 197.663C156.688 198.881 156.947 200.187 156.946 201.506C156.947 202.825 156.688 204.131 156.184 205.349C155.68 206.568 154.941 207.675 154.008 208.607C153.076 209.54 151.969 210.279 150.75 210.783C149.532 211.287 148.226 211.546 146.907 211.545V211.546Z" fill="url(#paint1_linear_539:7)"/>
</g>
<defs>
<linearGradient id="paint0_linear_539:7" x1="22.2708" y1="20.6753" x2="136.423" y2="133.688" gradientUnits="userSpaceOnUse">
<stop stop-color="#387EB8"/>
<stop offset="1" stop-color="#366994"/>
</linearGradient>
<linearGradient id="paint1_linear_539:7" x1="92.3371" y1="93.2452" x2="214.923" y2="209.13" gradientUnits="userSpaceOnUse">
<stop stop-color="#FFE052"/>
<stop offset="1" stop-color="#FFC331"/>
</linearGradient>
<clipPath id="clip0_539:7">
<rect width="230.91" height="230" fill="white"/>
</clipPath>
</defs>
</svg>
